<?xml version="1.0" standalone="no"?>
<!DOCTYPE svg PUBLIC "-//W3C//DTD SVG 20010904//EN"
 "http://www.w3.org/TR/2001/REC-SVG-20010904/DTD/svg10.dtd">
<svg version="1.0" xmlns="http://www.w3.org/2000/svg"
 width="600.000000pt" height="400.000000pt" viewBox="0 0 600.000000 400.000000"
 preserveAspectRatio="xMidYMid meet">

<g transform="translate(0.000000,400.000000) scale(0.100000,-0.100000)"
fill="#000000" stroke="none">
<path d="M0 3758 c0 -142 4 -238 9 -232 9 9 20 132 22 246 1 41 6 59 17 63 26
10 34 -10 30 -84 -2 -60 0 -71 13 -71 16 0 17 7 22 115 2 32 6 41 23 43 13 2
25 15 33 38 11 29 10 36 -5 51 -15 16 -15 18 6 35 35 28 15 38 -81 38 l-89 0
0 -242z"/>
<path d="M220 3990 c0 -5 9 -10 20 -10 11 0 20 5 20 10 0 6 -9 10 -20 10 -11
0 -20 -4 -20 -10z"/>
<path d="M300 3991 c0 -14 14 -21 55 -26 19 -3 35 0 35 5 0 6 -6 10 -12 11 -7
1 -2 5 12 9 l25 8 -27 1 c-19 1 -28 -4 -28 -14 0 -8 -4 -15 -10 -15 -5 0 -9 6
-7 12 1 7 -8 14 -20 16 -13 2 -23 -1 -23 -7z"/>
<path d="M458 3993 c7 -3 16 -2 19 1 4 3 -2 6 -13 5 -11 0 -14 -3 -6 -6z"/>
<path d="M518 3988 c9 -9 15 -9 24 0 9 9 7 12 -12 12 -19 0 -21 -3 -12 -12z"/>
<path d="M582 3983 c5 -26 38 -29 38 -4 0 15 -6 21 -21 21 -14 0 -19 -5 -17
-17z"/>
<path d="M650 3991 c0 -11 26 -22 34 -14 12 12 5 23 -14 23 -11 0 -20 -4 -20
-9z"/>
<path d="M723 3988 c2 -7 10 -13 17 -13 7 0 15 6 18 13 2 7 -5 12 -18 12 -13
0 -20 -5 -17 -12z"/>
<path d="M5754 3913 c2 -49 5 -103 5 -120 1 -18 5 -33 10 -33 5 0 7 14 6 30
-1 17 0 28 4 25 3 -4 6 -16 6 -27 0 -20 9 -25 56 -30 9 -1 16 -8 16 -15 0 -6
-3 -10 -7 -8 -3 2 -7 -8 -8 -23 -1 -14 -9 -30 -17 -35 -15 -8 -12 -27 4 -27 7
0 19 26 25 52 3 15 17 20 29 10 8 -7 18 -8 22 -4 5 4 5 1 0 -6 -5 -10 -10 -11
-18 -3 -15 15 -24 14 -24 -4 0 -10 9 -13 29 -11 27 3 28 2 28 -40 0 -24 4 -44
9 -44 6 0 8 10 6 21 -3 12 -1 18 3 15 4 -4 7 -13 7 -19 0 -6 12 -12 27 -12 24
-2 26 0 15 13 -9 13 -9 14 1 8 9 -6 12 34 12 183 l0 191 -125 0 -126 0 5 -87z
m82 -117 c1 -23 -16 -29 -33 -12 -4 4 -1 6 7 4 17 -4 21 21 6 42 -8 12 -8 13
4 2 8 -7 15 -23 16 -36z m-28 9 c-3 -3 -9 2 -12 12 -6 14 -5 15 5 6 7 -7 10
-15 7 -18z m108 -68 c1 -8 -4 -14 -12 -14 -9 0 -11 4 -4 12 6 7 6 16 0 23 -7
9 -7 9 2 2 6 -5 13 -16 14 -23z m-31 14 c3 -5 2 -12 -3 -15 -5 -3 -9 1 -9 9 0
17 3 19 12 6z m102 -98 c0 -9 -4 -10 -14 -2 -7 6 -13 12 -13 14 0 1 6 2 13 2
8 0 14 -6 14 -14z m-27 -8 c19 -22 8 -25 -12 -3 -10 10 -14 18 -9 18 5 0 14
-7 21 -15z"/>
<path d="M268 3963 c7 -3 16 -2 19 1 4 3 -2 6 -13 5 -11 0 -14 -3 -6 -6z"/>
<path d="M195 3950 c3 -5 8 -10 11 -10 2 0 4 5 4 10 0 6 -5 10 -11 10 -5 0 -7
-4 -4 -10z"/>
<path d="M238 3939 c-23 -13 -25 -77 -2 -86 12 -5 13 -7 2 -14 -8 -5 3 -7 27
-6 33 2 41 7 43 25 3 18 -1 22 -20 20 -15 -2 -23 2 -23 12 0 8 9 15 20 15 13
0 20 7 20 20 0 23 -39 31 -67 14z"/>
<path d="M344 3942 c-7 -4 -13 -30 -15 -59 l-4 -51 55 -4 c30 -2 63 0 73 4 19
10 23 38 6 55 -8 8 -8 13 0 17 18 12 12 24 -17 34 -24 8 -31 7 -40 -9 -18 -28
-15 -45 11 -57 l22 -11 -22 0 c-13 -1 -23 -5 -23 -11 0 -5 -4 -10 -10 -10 -5
0 -10 25 -10 55 0 54 -4 62 -26 47z"/>
<path d="M505 3920 c-4 -6 -11 -8 -16 -5 -5 3 -6 -2 -2 -11 5 -13 3 -15 -8 -9
-11 6 -12 5 -1 -6 6 -7 12 -21 12 -31 0 -21 33 -40 63 -36 29 4 28 31 -1 38
-31 7 -29 24 3 28 19 3 25 8 21 19 -3 8 -6 17 -6 19 0 9 -59 3 -65 -6z"/>
<path d="M612 3915 c-27 -19 -28 -52 -3 -84 15 -19 23 -22 50 -16 42 9 59 47
36 81 -8 13 -19 24 -24 24 -5 0 -15 2 -23 5 -7 3 -23 -2 -36 -10z m53 -45 c0
-8 -8 -16 -17 -18 -13 -2 -18 3 -18 18 0 15 5 20 18 18 9 -2 17 -10 17 -18z"/>
<path d="M5656 3923 c-3 -3 -6 -24 -6 -45 0 -24 -4 -37 -10 -33 -6 4 -10 -12
-10 -39 0 -25 5 -46 10 -46 6 0 10 18 10 40 0 29 4 40 15 40 11 0 15 11 15 39
0 38 -10 57 -24 44z"/>
<path d="M200 3850 c0 -5 5 -10 11 -10 5 0 7 5 4 10 -3 6 -8 10 -11 10 -2 0
-4 -4 -4 -10z"/>
<path d="M5710 3803 c0 -56 17 -56 21 0 3 30 0 44 -8 44 -9 0 -13 -16 -13 -44z"/>
<path d="M50 3758 c-3 -42 -1 -73 3 -69 4 4 7 39 5 77 l-3 69 -5 -77z"/>
<path d="M130 3757 c-4 -68 -3 -77 13 -77 13 0 17 9 17 40 0 22 -4 40 -9 40
-6 0 -11 17 -13 38 -2 22 -6 7 -8 -41z"/>
<path d="M240 3776 c0 -9 7 -16 16 -16 17 0 14 22 -4 28 -7 2 -12 -3 -12 -12z"/>
<path d="M448 3783 c6 -2 18 -2 25 0 6 3 1 5 -13 5 -14 0 -19 -2 -12 -5z"/>
<path d="M338 3773 c6 -2 18 -2 25 0 6 3 1 5 -13 5 -14 0 -19 -2 -12 -5z"/>
<path d="M5760 3665 c0 -8 5 -15 10 -15 6 0 10 7 10 15 0 8 -4 15 -10 15 -5 0
-10 -7 -10 -15z"/>
<path d="M4290 3072 c-36 -18 -53 -44 -63 -99 -6 -29 -3 -33 26 -42 18 -6 72
-13 120 -15 68 -4 87 -2 87 8 0 9 -14 13 -42 13 -24 0 -69 0 -100 1 -56 2 -58
3 -58 30 0 15 9 42 21 61 17 28 24 32 47 27 15 -3 38 -9 52 -12 32 -7 42 -17
57 -57 11 -32 11 -32 12 -5 2 44 -15 74 -52 91 -44 21 -63 21 -107 -1z"/>
<path d="M4220 2922 c0 -5 7 -13 16 -16 10 -4 14 -1 12 6 -5 15 -28 23 -28 10z"/>
<path d="M4437 2893 c-4 -3 -7 -18 -8 -32 -1 -34 -31 -85 -53 -89 -23 -5 -56
26 -49 44 4 10 -3 14 -26 14 -26 0 -31 -4 -31 -24 0 -14 10 -37 23 -51 19 -23
26 -25 50 -16 17 7 27 7 27 1 0 -6 -10 -10 -22 -10 -17 0 -19 -3 -10 -12 9 -9
18 -8 38 2 33 18 60 72 66 133 6 49 5 51 -5 40z"/>
<path d="M4350 2878 c0 -5 10 -13 23 -18 21 -8 21 -9 -5 -9 -42 -1 -34 -21 8
-21 29 0 35 3 30 16 -3 9 -6 19 -6 24 0 4 -11 10 -25 12 -14 3 -25 1 -25 -4z"/>
<path d="M4235 2851 c-3 -5 -1 -12 5 -16 5 -3 10 1 10 9 0 18 -6 21 -15 7z"/>
<path d="M4193 2772 c-16 -21 -41 -36 -87 -52 -80 -26 -126 -66 -126 -108 0
-16 -7 -62 -16 -101 -12 -52 -14 -87 -8 -129 9 -61 9 -61 -4 -139 l-9 -53 30
0 c22 0 27 3 20 13 -6 6 -13 33 -15 58 l-5 47 28 -29 c16 -16 35 -29 44 -29
13 0 14 -14 10 -92 -2 -51 -10 -139 -18 -195 -12 -95 -9 -138 10 -120 9 10 38
-74 59 -173 9 -41 24 -95 34 -120 17 -41 26 -108 45 -350 4 -41 13 -107 21
-147 8 -40 14 -86 14 -103 l0 -30 -89 0 c-49 0 -95 2 -103 5 -9 4 -12 21 -10
61 2 30 -1 67 -7 82 -11 25 -70 74 -95 78 -6 1 -34 11 -63 23 -47 18 -103 24
-198 20 -16 0 -49 -10 -73 -20 -65 -30 -74 -24 -87 51 -18 108 -53 140 -153
140 -80 0 -119 -27 -149 -100 l-22 -55 -61 3 c-54 4 -66 1 -110 -28 -28 -18
-60 -46 -72 -63 -26 -37 -79 -142 -77 -154 1 -4 1 -16 0 -26 -1 -17 -16 -18
-293 -14 l-293 3 -75 40 -75 40 2 52 c1 28 9 64 17 80 11 21 12 38 6 68 -5 21
-10 65 -10 97 0 88 -24 125 -105 169 -39 21 -40 21 -95 2 -34 -12 -70 -34 -94
-58 -38 -38 -38 -39 -32 -97 3 -37 2 -60 -5 -65 -14 -8 -5 -84 10 -94 28 -17
29 -87 2 -114 -25 -25 -143 -69 -151 -56 -8 12 -165 13 -213 1 -22 -5 -49 -19
-61 -30 -29 -27 -41 -26 -104 4 -29 14 -56 25 -61 25 -17 0 -9 44 17 99 21 43
26 70 27 127 0 64 -3 76 -25 99 -14 15 -38 34 -55 42 -39 21 -141 20 -164 -1
-22 -20 -31 -20 -31 -1 0 8 -7 15 -15 15 -9 0 -14 -8 -12 -21 1 -12 -4 -24
-10 -26 -8 -3 -13 4 -13 15 0 24 -37 39 -53 23 -6 -6 -11 -28 -11 -48 -1 -21
-11 -55 -23 -75 -12 -21 -25 -54 -28 -75 -13 -80 -14 -82 -61 -103 -26 -11
-52 -20 -59 -20 -13 0 -55 79 -55 102 0 7 -9 19 -20 26 -11 7 -20 18 -20 25 0
21 -73 60 -123 65 -26 3 -76 -1 -110 -8 -51 -11 -69 -20 -98 -52 -31 -33 -98
-141 -97 -158 0 -19 -16 -60 -23 -60 -5 0 -9 -7 -9 -15 0 -8 -7 -15 -15 -15
-8 0 -15 4 -15 9 0 6 -27 23 -60 39 l-60 28 0 -513 0 -513 3000 0 3000 0 0
485 c0 267 -4 485 -8 485 -15 0 -44 -62 -39 -86 2 -15 0 -24 -8 -24 -7 0 -15
13 -18 28 -7 32 -55 92 -74 92 -7 0 -13 4 -13 10 0 8 -113 27 -132 22 -56 -14
-68 -12 -83 18 -9 16 -22 30 -29 30 -29 0 -46 48 -52 142 -8 138 -11 152 -52
202 -36 45 -38 46 -95 46 -96 0 -156 -34 -187 -106 -15 -35 -17 -56 -10 -146
7 -100 9 -109 46 -164 38 -58 47 -85 38 -113 -4 -12 -9 -10 -27 6 -12 12 -35
33 -50 48 -26 24 -28 30 -22 73 10 78 -9 180 -41 213 -56 59 -158 62 -250 7
-77 -45 -89 -195 -24 -299 16 -27 30 -51 30 -54 0 -10 -116 -4 -137 8 -12 7
-33 29 -47 50 -23 33 -26 48 -26 125 0 48 -7 156 -15 240 -11 109 -13 168 -6
205 6 33 6 93 0 162 -5 61 -6 127 -3 148 7 45 -10 219 -33 335 -9 45 -14 85
-11 88 3 2 21 -2 39 -11 28 -14 51 -15 134 -8 l100 8 3 48 c2 34 7 47 19 47 9
0 13 6 9 15 -3 9 0 15 9 15 8 0 15 7 15 15 0 18 -5 18 -31 4 -11 -5 -17 -14
-14 -18 3 -5 -2 -11 -10 -15 -8 -3 -15 -12 -15 -21 0 -8 -4 -15 -10 -15 -5 0
-10 5 -10 11 0 7 -8 18 -17 25 -16 12 -16 15 -3 23 12 8 12 13 3 22 -9 9 -16
9 -28 -1 -20 -17 -61 3 -71 33 -4 11 -22 45 -41 75 -19 30 -46 79 -59 108 -13
30 -25 54 -27 54 -4 0 -157 55 -179 65 -12 4 -18 3 -18 -5 0 -6 -10 -20 -22
-30 l-22 -17 23 -12 c21 -12 21 -14 7 -36 -24 -36 -19 -40 9 -8 l24 28 1 -92
0 -93 44 0 c28 0 46 -5 49 -14 3 -8 19 -17 36 -21 42 -9 53 -29 12 -21 -17 3
-46 8 -63 11 l-33 5 30 -15 c17 -8 40 -14 52 -15 12 0 25 -5 29 -11 5 -9 -4
-9 -32 -3 -38 8 -108 9 -168 3 -18 -3 -31 -11 -37 -26 -13 -34 -26 -28 -34 17
-8 46 -2 60 27 60 18 0 20 4 13 33 -4 17 -8 42 -7 55 0 12 -4 22 -9 22 -5 0
-9 6 -9 14 0 8 -11 28 -25 44 -25 30 -33 62 -15 62 6 0 10 8 10 17 0 15 -1 15
-13 -1 -13 -17 -16 -16 -44 20 -17 22 -32 47 -34 57 -3 16 -7 14 -26 -11z
m624 -404 c-3 -7 -5 -2 -5 12 0 14 2 19 5 13 2 -7 2 -19 0 -25z m-390 -950
c17 -20 42 -121 63 -248 10 -63 21 -133 25 -155 7 -39 5 -41 -35 -68 -23 -15
-52 -27 -65 -27 -22 0 -22 2 -29 168 -9 249 -9 311 -1 377 l8 60 12 -47 c6
-26 16 -53 22 -60z m-3507 -88 c0 -10 -4 -22 -10 -25 -6 -4 -10 7 -10 25 0 18
4 29 10 25 6 -3 10 -15 10 -25z m3225 -890 c3 -5 12 -7 20 -3 8 3 15 0 15 -6
0 -12 -6 -13 -37 -5 -13 4 -23 10 -23 15 0 12 17 11 25 -1z"/>
<path d="M4830 2494 c0 -14 4 -23 10 -19 6 3 10 15 10 26 0 10 -4 19 -10 19
-5 0 -10 -12 -10 -26z"/>
<path d="M273 2500 c-12 -5 -32 -22 -44 -39 -78 -106 31 -240 152 -186 21 10
39 24 39 32 0 17 -10 16 -34 -2 -23 -17 -69 -19 -96 -5 -11 6 -24 29 -30 52
-15 55 8 123 46 132 43 11 82 -8 97 -47 11 -29 24 -12 19 26 -3 27 -9 35 -25
36 -12 0 -40 3 -62 6 -22 2 -50 0 -62 -5z"/>
<path d="M477 2503 c-14 -13 -6 -33 13 -33 13 0 20 7 20 20 0 19 -20 27 -33
13z"/>
<path d="M1144 2461 c15 -16 17 -34 14 -99 -2 -46 -9 -87 -17 -96 -12 -14 -8
-16 35 -16 37 1 45 3 32 10 -14 9 -16 23 -11 103 3 50 10 98 16 105 7 9 -2 12
-38 12 -47 0 -48 0 -31 -19z"/>
<path d="M4921 2454 c-7 -8 -11 -17 -8 -20 7 -8 35 7 41 22 7 19 -15 17 -33
-2z"/>
<path d="M2565 2425 c-14 -13 -25 -31 -25 -40 0 -8 -8 -15 -17 -15 -17 -1 -17
-2 0 -15 16 -11 18 -24 15 -74 -3 -56 -1 -61 17 -61 19 0 20 6 18 101 -1 83 1
101 14 106 9 3 24 1 35 -6 27 -16 38 -3 14 15 -28 20 -43 18 -71 -11z"/>
<path d="M1441 2414 c-15 -18 -20 -29 -13 -32 8 -2 12 -28 12 -68 0 -68 11
-84 48 -69 16 6 16 7 0 16 -14 8 -18 23 -18 64 0 48 3 54 23 58 l22 4 -22 8
c-12 4 -23 16 -25 27 -3 18 -5 18 -27 -8z"/>
<path d="M2947 2433 c-14 -4 -16 -8 -7 -19 8 -9 11 -47 8 -109 -3 -82 -1 -95
13 -95 13 0 17 11 18 53 1 28 2 59 3 67 3 39 -3 110 -9 109 -5 -1 -16 -3 -26
-6z"/>
<path d="M4862 2428 c6 -18 28 -21 28 -4 0 9 -7 16 -16 16 -9 0 -14 -5 -12
-12z"/>
<path d="M460 2418 c-21 -9 -22 -12 -7 -15 13 -4 17 -15 17 -58 0 -30 -4 -57
-10 -60 -21 -13 -9 -25 26 -25 29 0 35 3 30 16 -3 9 -6 47 -6 85 0 74 -3 77
-50 57z"/>
<path d="M578 2419 c-11 -6 -18 -22 -18 -39 0 -23 8 -33 40 -51 22 -13 40 -28
40 -35 0 -21 -28 -23 -53 -3 -31 24 -37 24 -37 0 0 -23 4 -26 46 -35 22 -5 37
-2 56 14 35 27 26 54 -29 87 -38 22 -42 28 -31 40 17 16 48 7 48 -14 0 -22 25
-10 28 14 2 16 -4 22 -29 27 -40 8 -40 8 -61 -5z"/>
<path d="M2710 2415 c0 -8 5 -15 10 -15 6 0 10 5 10 11 0 6 14 9 32 7 l31 -3
-2 -89 c-1 -50 -3 -94 -4 -99 -1 -5 8 -11 19 -13 21 -3 22 -1 20 101 l-1 105
27 0 c15 0 30 -4 33 -10 9 -15 25 -12 25 5 0 12 -18 15 -100 15 -82 0 -100 -3
-100 -15z"/>
<path d="M3140 2420 c0 -5 7 -10 15 -10 8 0 15 5 15 10 0 6 -7 10 -15 10 -8 0
-15 -4 -15 -10z"/>
<path d="M715 2395 c-34 -33 -34 -87 0 -120 13 -14 31 -25 39 -25 28 0 64 22
75 46 12 27 0 32 -19 8 -8 -8 -25 -14 -39 -12 -30 4 -47 41 -37 82 8 32 40 35
56 6 14 -26 40 -26 40 0 0 43 -77 54 -115 15z"/>
<path d="M900 2407 c-52 -26 -60 -89 -18 -134 32 -34 80 -31 112 8 34 40 33
74 -3 110 -32 32 -53 35 -91 16z m58 -19 c6 -7 13 -29 17 -48 8 -45 -12 -75
-43 -66 -46 15 -43 126 3 126 7 0 17 -6 23 -12z"/>
<path d="M2161 2394 c-15 -18 -20 -29 -13 -32 8 -2 12 -28 12 -68 0 -63 0 -64
27 -64 21 0 24 3 15 12 -18 18 -16 118 3 118 8 0 15 5 15 10 0 6 -6 10 -14 10
-8 0 -16 9 -18 21 -3 20 -4 19 -27 -7z"/>
<path d="M1244 2389 c-3 -5 0 -9 5 -9 15 0 14 -103 -1 -118 -7 -7 -8 -12 -2
-13 5 0 21 -2 37 -4 27 -4 37 8 17 20 -5 3 -10 26 -10 51 0 38 4 46 25 56 14
6 28 8 32 4 7 -7 5 -91 -3 -118 -4 -13 1 -16 22 -15 27 2 28 3 25 62 -4 87
-10 94 -81 93 -33 0 -63 -5 -66 -9z"/>
<path d="M1551 2383 c-31 -26 -38 -90 -13 -122 24 -30 73 -33 102 -6 28 25 25
36 -6 20 -29 -15 -52 -10 -71 14 -25 32 -15 41 42 41 47 0 55 3 55 19 0 41
-72 64 -109 34z m53 -9 c27 -10 19 -34 -12 -34 -35 0 -45 9 -31 27 13 15 20
16 43 7z"/>
<path d="M3836 2363 c-36 -57 -41 -106 -16 -158 12 -24 28 -49 37 -57 14 -11
13 -8 -1 15 -26 39 -27 171 -2 210 10 15 16 27 12 27 -3 0 -17 -17 -30 -37z"/>
<path d="M1692 2383 c-10 -4 -10 -8 -1 -19 7 -9 10 -35 7 -69 -4 -51 -3 -55
17 -55 20 0 22 4 17 50 -6 62 6 77 54 72 l36 -4 -4 -64 c-4 -60 -3 -64 17 -64
20 0 21 4 17 60 -4 57 -3 60 23 72 21 9 28 9 35 -1 8 -15 5 -105 -5 -121 -3
-6 5 -10 19 -10 25 0 26 3 26 53 0 28 -3 62 -6 75 -8 27 -48 39 -70 21 -9 -7
-18 -9 -22 -3 -8 11 -82 12 -99 1 -6 -4 -14 -3 -18 3 -7 11 -22 12 -43 3z"/>
<path d="M2040 2382 c-8 -3 -23 -11 -32 -20 -25 -21 -24 -93 0 -115 25 -22 75
-21 95 1 24 26 21 39 -3 17 -25 -23 -63 -13 -78 20 -16 34 -16 35 11 36 l22 0
-24 10 c-19 8 -21 12 -11 24 7 8 21 15 32 15 23 0 36 -29 17 -41 -10 -6 -4 -9
19 -9 25 0 32 4 32 19 0 30 -45 54 -80 43z"/>
<path d="M2364 2362 c-18 -11 -34 -48 -34 -76 0 -59 82 -88 128 -46 45 42 20
130 -36 130 -21 0 -21 -1 3 -25 39 -38 28 -115 -15 -115 -39 0 -60 89 -29 126
12 15 2 19 -17 6z"/>
<path d="M3000 2351 c0 -5 9 -11 21 -14 19 -5 21 -12 17 -66 -3 -56 -1 -61 17
-61 18 0 20 5 17 62 -2 35 -9 69 -14 76 -12 14 -58 17 -58 3z"/>
<path d="M3144 2353 c-7 -2 -9 -22 -6 -52 2 -26 -1 -57 -7 -69 -8 -15 -8 -21
3 -25 25 -10 33 8 32 75 -1 69 -4 78 -22 71z"/>
<path d="M3224 2278 c0 -60 3 -74 16 -74 11 0 15 11 15 46 0 25 2 56 5 70 4
19 1 26 -15 28 -18 2 -20 -3 -21 -70z"/>
<path d="M3298 2338 c21 -11 23 -18 21 -72 -2 -54 -1 -61 17 -64 19 -3 20 2
16 60 -5 73 -14 88 -51 87 l-26 0 23 -11z"/>
<path d="M3415 2326 c-15 -22 -15 -27 -1 -54 14 -27 14 -31 0 -36 -10 -4 -14
-13 -10 -22 3 -8 1 -25 -5 -36 -15 -28 10 -48 59 -48 40 0 68 13 82 40 15 29
-12 50 -66 50 -46 0 -57 12 -26 29 9 6 12 11 6 11 -17 0 -26 47 -14 70 16 29
-6 25 -25 -4z m113 -141 c2 -2 2 -11 -1 -20 -7 -17 -82 -21 -106 -6 -13 8 -13
12 -1 26 11 13 24 16 59 11 24 -3 46 -8 49 -11z"/>
<path d="M3480 2346 c0 -3 5 -15 12 -25 9 -15 9 -26 1 -44 -10 -22 -9 -24 8
-20 10 3 22 17 25 32 4 14 11 32 17 39 7 9 4 12 -11 12 -11 0 -27 3 -36 6 -9
3 -16 3 -16 0z"/>
<path d="M3586 2332 c-21 -24 -13 -45 22 -63 27 -14 51 -38 52 -51 0 -4 -9
-10 -21 -13 -11 -4 -18 -9 -15 -12 10 -10 56 27 56 45 0 9 -21 29 -46 45 -39
23 -44 30 -34 42 19 23 6 28 -14 7z"/>
<path d="M3655 2330 c3 -5 8 -10 11 -10 2 0 4 5 4 10 0 6 -5 10 -11 10 -5 0
-7 -4 -4 -10z"/>
<path d="M3 2280 c0 -25 2 -35 4 -22 2 12 2 32 0 45 -2 12 -4 2 -4 -23z"/>
<path d="M3577 2223 c-12 -11 -7 -21 13 -26 11 -3 20 -2 20 3 0 12 -26 31 -33
23z"/>
<path d="M225 1721 c-3 -5 -1 -12 4 -15 14 -9 10 -56 -5 -56 -8 0 -14 -7 -14
-15 0 -18 21 -20 38 -3 18 18 16 98 -2 98 -8 0 -17 -4 -21 -9z"/>
<path d="M491 1708 c-6 -13 -10 -19 -10 -14 -1 5 -9 1 -20 -8 -15 -14 -19 -15
-24 -3 -4 11 -24 14 -84 13 l-78 -1 -2 -37 -3 -38 49 1 c49 2 50 2 44 30 -3
18 -1 29 6 29 6 0 11 -8 11 -18 0 -23 19 -42 42 -42 25 0 22 16 -4 25 -22 7
-22 7 -3 12 13 4 24 -2 33 -16 9 -13 25 -21 43 -21 28 0 29 2 29 49 0 55 -15
75 -29 39z m-154 -60 c-3 -7 -5 -2 -5 12 0 14 2 19 5 13 2 -7 2 -19 0 -25z
m149 -5 c-11 -11 -19 6 -11 24 8 17 8 17 12 0 3 -10 2 -21 -1 -24z"/>
<path d="M570 1705 c-8 -9 -10 -28 -6 -50 7 -34 9 -36 43 -33 20 2 38 9 41 16
3 11 0 12 -16 3 -15 -8 -23 -7 -34 7 -26 29 0 69 33 51 18 -9 34 2 22 15 -12
12 -71 6 -83 -9z"/>
<path d="M754 1693 c-27 -4 -30 -7 -28 -36 2 -18 1 -23 -2 -12 -16 54 -55 59
-60 8 l-4 -33 49 0 c46 0 48 1 43 25 -3 19 0 25 12 25 12 0 16 -7 14 -22 -2
-11 3 -23 10 -25 8 -3 12 6 12 26 0 17 0 34 1 38 1 9 -8 11 -47 6z m-54 -47
c0 -3 -4 -8 -10 -11 -5 -3 -10 -1 -10 4 0 6 5 11 10 11 6 0 10 -2 10 -4z"/>
<path d="M844 1682 c3 -5 -2 -9 -12 -8 -12 1 -17 -6 -17 -24 0 -21 5 -25 30
-26 17 0 36 -3 42 -7 14 -9 23 2 23 30 0 13 5 23 12 23 9 0 9 3 1 11 -16 16
-43 3 -43 -21 0 -13 -7 -20 -20 -20 -11 0 -20 5 -20 10 0 6 6 9 13 8 17 -4 15
24 -2 30 -8 3 -11 0 -7 -6z"/>
<path d="M206 1524 c-9 -24 -7 -31 5 -14 8 11 9 5 6 -27 -4 -37 -3 -42 19 -46
13 -2 24 0 24 6 0 5 6 4 14 -2 11 -9 20 -10 36 -1 34 18 21 50 -29 77 -52 27
-67 29 -75 7z m57 -46 c-3 -16 -9 -28 -14 -28 -5 0 -7 10 -5 23 3 12 5 29 5
37 1 9 4 10 10 5 5 -6 7 -22 4 -37z m42 -18 c-5 -8 -11 -8 -17 -2 -6 6 -7 16
-3 22 5 8 11 8 17 2 6 -6 7 -16 3 -22z"/>
<path d="M330 1525 c0 -9 6 -12 16 -8 15 5 16 0 12 -40 -5 -41 -3 -47 13 -47
16 0 19 8 19 45 0 35 3 43 15 39 9 -4 15 0 15 10 0 12 -10 16 -45 16 -33 0
-45 -4 -45 -15z"/>
<path d="M460 1536 c-3 -2 -3 -27 -2 -55 l4 -51 60 0 c37 0 57 4 53 10 -4 6 4
6 19 -1 41 -19 55 -6 53 47 -1 31 -7 49 -16 52 -9 3 -12 0 -8 -11 4 -10 -1
-17 -14 -20 -10 -3 -23 -16 -28 -29 -10 -23 -10 -23 -10 4 -1 25 -4 27 -33 25
-29 -2 -33 -6 -30 -30 2 -16 -1 -27 -8 -27 -8 0 -11 15 -8 42 2 32 -1 43 -12
46 -9 1 -18 1 -20 -2z m160 -68 c0 -16 -3 -19 -11 -11 -6 6 -8 16 -5 22 11 17
16 13 16 -11z m-70 -3 c0 -8 -4 -15 -10 -15 -5 0 -10 7 -10 15 0 8 5 15 10 15
6 0 10 -7 10 -15z"/>
<path d="M985 1480 l0 -50 38 0 c20 0 37 5 37 10 0 6 -6 10 -12 9 -35 -4 -40
1 -36 41 3 31 0 40 -12 40 -11 0 -15 -12 -15 -50z"/>
<path d="M1239 1508 c-2 -46 -4 -51 -17 -56 -9 -3 -11 3 -6 22 7 31 -1 34 -16
7 -15 -29 -2 -51 31 -51 28 0 29 2 29 50 0 48 -19 73 -21 28z"/>
<path d="M796 1511 c-4 -7 -14 -10 -22 -7 -22 8 -44 -4 -44 -25 0 -10 5 -19
10 -19 6 0 10 -4 10 -10 0 -20 -29 3 -32 26 -4 35 -22 34 -29 -1 l-7 -30 -1
33 c-2 46 -21 40 -21 -7 l0 -39 49 0 c65 0 81 10 57 37 -17 19 -17 19 0 17 10
-2 21 -14 24 -27 4 -17 14 -25 33 -27 23 -3 27 0 27 22 0 16 6 26 15 26 8 0
15 -4 15 -8 0 -5 6 -17 14 -27 13 -18 14 -17 30 13 19 36 20 42 6 42 -5 0 -10
-7 -10 -15 0 -8 -4 -15 -10 -15 -5 0 -10 7 -10 15 0 11 -12 15 -44 15 -26 0
-46 5 -48 12 -3 9 -6 9 -12 -1z m34 -47 c0 -8 -4 -14 -10 -14 -5 0 -10 9 -10
21 0 11 5 17 10 14 6 -3 10 -13 10 -21z"/>
<path d="M1069 1478 c-16 -30 4 -44 64 -46 56 -1 56 -2 48 59 -1 4 -24 7 -51
7 -40 0 -53 -4 -61 -20z m88 -25 c-3 -10 -5 -4 -5 12 0 17 2 24 5 18 2 -7 2
-21 0 -30z m-17 18 c9 -2 -25 -21 -37 -21 -7 0 -13 6 -13 13 0 12 17 14 50 8z"/>
<path d="M872 1421 c-11 -7 -10 -10 3 -15 20 -7 38 1 30 15 -7 11 -16 11 -33
0z"/>
<path d="M224 1379 c-28 -10 -40 -29 -20 -29 19 0 18 3 7 -38 -9 -28 -7 -32
10 -32 12 0 19 7 19 19 0 14 6 19 20 18 11 -1 20 -6 20 -13 0 -6 8 -18 19 -28
16 -14 20 -15 30 -2 10 12 18 13 37 4 18 -9 28 -8 36 0 15 15 32 16 23 2 -3
-5 1 -10 9 -10 11 0 16 9 16 30 0 36 23 36 30 0 5 -24 9 -25 83 -28 77 -3 77
-3 77 23 0 29 17 33 36 8 18 -24 17 -33 -1 -33 -8 0 -15 -7 -15 -15 0 -32 32
-13 50 31 23 53 23 54 10 54 -5 0 -10 -8 -10 -17 -1 -16 -2 -16 -13 -2 -13 17
-101 30 -153 22 -26 -4 -30 -8 -26 -29 2 -14 0 -24 -7 -24 -6 0 -11 11 -11 24
0 40 -55 50 -70 14 -6 -17 -9 -18 -9 -6 -1 9 -10 20 -21 23 -11 3 -20 13 -20
21 0 8 -7 14 -15 14 -8 0 -15 -9 -15 -19 0 -14 -5 -18 -20 -14 -11 3 -26 1
-33 -5 -18 -15 -57 -3 -57 17 0 9 3 12 8 6 11 -15 45 -19 40 -4 -6 18 -40 28
-64 18z m329 -74 c-7 -21 -13 -19 -13 6 0 11 4 18 10 14 5 -3 7 -12 3 -20z
m-228 5 c3 -5 1 -10 -4 -10 -6 0 -11 5 -11 10 0 6 2 10 4 10 3 0 8 -4 11 -10z
m75 -5 c0 -8 -4 -15 -10 -15 -5 0 -10 7 -10 15 0 8 5 15 10 15 6 0 10 -7 10
-15z m177 -7 c-3 -8 -6 -5 -6 6 -1 11 2 17 5 13 3 -3 4 -12 1 -19z m43 7 c0
-8 -2 -15 -4 -15 -2 0 -6 7 -10 15 -3 8 -1 15 4 15 6 0 10 -7 10 -15z"/>
<path d="M807 1364 c-11 -11 3 -24 18 -17 22 8 19 -19 -5 -45 -27 -28 -25 -32
10 -32 17 0 30 5 30 10 0 6 -7 10 -17 10 -15 0 -15 1 0 18 26 28 22 62 -6 62
-13 0 -27 -3 -30 -6z"/>
<path d="M0 1290 c0 -5 7 -10 16 -10 8 0 12 5 9 10 -3 6 -10 10 -16 10 -5 0
-9 -4 -9 -10z"/>
<path d="M728 1294 c-11 -10 3 -34 19 -34 8 0 13 7 11 17 -3 18 -20 27 -30 17z"/>
<path d="M28 1163 c6 -2 18 -2 25 0 6 3 1 5 -13 5 -14 0 -19 -2 -12 -5z"/>
<path d="M138 1163 c7 -3 16 -2 19 1 4 3 -2 6 -13 5 -11 0 -14 -3 -6 -6z"/>
</g>
</svg>
