<svg width="56.99999999999999" height="59" xmlns="http://www.w3.org/2000/svg" data-name="Calque 1">
    <def>
        <style>
            .cls-1 {
                fill: #20b471;
            }

            .cls-1,
            .cls-2,
            .cls-3 {
            fill-rule: evenodd
            }

            .cls-2 {
            fill:#2c5eaa;
            }

            .cls-3 {
            fill: #00a959;
            }
        </style>
    </def>
 <g>
  <path class="cls-3" d="m4.9363,49.47751l0,-3.74l3.71,0l0,3.75l-3.71,-0.01z" id="svg_7"/>
  <path class="cls-2" d="m53.1163,53.08751c-1.78,0.59 -3,0.81 -3.14,0.89a26,26 0 0 1 -8.83,-1l-3.23,-1.24c-12.7,-5.92 -21.69,-15 -30,-23.38q-2.08,-2.26 -4.17,-4.5c-0.15,-0.29 -0.36,-0.52 -0.15,-0.79a11.52,11.52 0 0 1 2.2,0.73c0,-0.38 -0.84,-0.91 -1.18,-1.2c-0.12,-0.22 -0.24,-0.41 -0.36,-0.6a13.35,13.35 0 0 0 3,0.4a5.19,5.19 0 0 1 -0.06,-0.7c-1.65,-2.46 -4.28,-4.7 -6.72,-6.9c-0.61,1.4 -0.46,3.2 -0.46,4.66c0.06,0.89 0.12,1.8 0.21,2.71a42.08,42.08 0 0 0 5.46,14.9c0.12,0.17 0.24,0.34 0.36,0.54a0.74,0.74 0 0 0 0.15,0.24l0,0.15c0.81,0 1.63,0 2.44,0.08l0,3.3l0.21,0a7.29,7.29 0 0 0 0.6,1a5.69,5.69 0 0 0 0.4,0.48c6.17,6.89 14.66,14.21 27.7,15.72l4.37,0a19.57,19.57 0 0 0 11.37,-4.9c0.27,-0.36 0.57,-0.7 0.87,-1c-0.35,0.1 -0.71,0.26 -1.04,0.41zm-18.71,-39.96l-2.71,0c-9.29,-0.36 -18.34,-2.13 -27.54,-2.83l-2.39,0c2.25,-4.73 5.71,-8.24 13.07,-10.04c11.83,-1.51 21.11,3.88 28.06,9.4c-0.01,2.56 -5.44,3.34 -8.49,3.47z" id="svg_9"/>
  <path class="cls-1" d="m32.0163,40.31751a25,25 0 0 1 -5.31,-1.7c-7.57,-4 -13.64,-9 -19.7,-14c0.33,0.08 3.53,1.72 6.12,3a5.93,5.93 0 0 0 2.32,0.64c0,-1 -1.12,-2.19 -1.6,-3.14c-0.36,-2 0.24,-2.72 2.47,-3.94c7.79,-2.7 17.38,-2.31 23.93,-6.52c0.39,-0.33 0.78,-0.66 1.21,-1a8.21,8.21 0 0 0 2,-3.14a0.68,0.68 0 0 1 0.21,-0.22a47.3,47.3 0 0 1 12.98,18.2a0.43,0.43 0 0 0 -0.06,0.17a39.48,39.48 0 0 0 -10.17,3.86c-0.09,0.12 -0.88,0.54 -3.65,2.52c-2.44,1.94 -2.44,1.94 -5,3.82a10.17,10.17 0 0 1 -5.75,1.45z" id="svg_8"/>
  <path class="cls-3" d="m4.9363,41.77751l0,-3.78l1.27,0c0.81,0 1.63,0 2.44,0.08l0,3.7l-3.71,0z" id="svg_10"/>
 </g>
</svg>