<?xml version="1.0" standalone="no"?>
<!DOCTYPE svg PUBLIC "-//W3C//DTD SVG 20010904//EN"
 "http://www.w3.org/TR/2001/REC-SVG-20010904/DTD/svg10.dtd">
<svg version="1.0" xmlns="http://www.w3.org/2000/svg"
 width="600.000000pt" height="438.000000pt" viewBox="0 0 600.000000 438.000000"
 preserveAspectRatio="xMidYMid meet">

<g transform="translate(0.000000,438.000000) scale(0.100000,-0.100000)"
fill="#000000" stroke="none">
<path d="M0 4372 c0 -7 184 -39 550 -98 85 -13 208 -34 272 -45 64 -11 126
-18 138 -14 29 9 22 14 -41 25 -30 5 -133 23 -229 39 -96 17 -265 46 -375 66
-188 33 -315 44 -315 27z"/>
<path d="M4915 4370 c-3 -5 -15 -10 -25 -10 -10 0 -23 -6 -27 -13 -4 -7 -20
-20 -35 -30 -16 -10 -28 -26 -28 -36 0 -13 -10 -22 -30 -26 -16 -4 -30 -13
-30 -21 0 -8 -8 -14 -17 -14 -10 0 -31 -7 -47 -15 -15 -8 -58 -16 -95 -17
l-66 -1 65 -7 c36 -4 110 -13 165 -19 375 -42 393 -57 65 -54 -182 2 -232 0
-243 -11 -7 -8 -39 -19 -70 -26 -54 -13 -56 -14 -36 -28 l21 -15 -23 -21 c-13
-12 -46 -28 -74 -37 -34 -11 -49 -20 -47 -31 1 -9 -16 -24 -45 -39 -72 -36
-75 -43 -37 -84 22 -24 29 -27 45 -17 12 8 19 8 19 2 0 -5 8 -10 18 -10 28 0
92 -20 92 -29 0 -5 -10 -11 -22 -14 -12 -4 -20 -8 -18 -11 11 -10 95 20 95 34
0 17 46 21 52 4 3 -10 -63 -44 -88 -44 -11 0 -11 -2 1 -10 13 -8 12 -10 -4
-10 -32 0 -5 -18 34 -24 30 -4 -216 1 -417 9 -58 2 -81 -6 -50 -18 6 -3 -9 -6
-35 -6 -55 -1 -73 -18 -26 -24 18 -2 -7 -2 -56 0 -95 3 -101 5 -101 31 0 19
38 16 -590 41 -268 10 -497 15 -545 12 -21 -2 -23 -4 -9 -13 15 -10 14 -17 -2
-77 -10 -36 -24 -86 -30 -111 -25 -98 -57 -139 -68 -84 -2 10 -8 22 -13 25 -5
4 -3 12 6 21 9 10 17 45 21 99 4 46 13 96 20 111 7 15 10 30 7 32 -7 4 -252
13 -477 19 -96 2 -100 1 -97 -18 4 -28 -45 -45 -134 -46 l-69 0 40 -17 c22 -9
76 -47 120 -85 44 -39 95 -79 112 -91 18 -11 33 -29 33 -38 0 -21 -25 -24 -37
-5 -4 6 -20 19 -35 27 -34 19 -214 145 -251 176 -22 18 -24 24 -12 24 15 0 15
2 4 16 -7 9 -21 13 -34 10 -14 -4 -25 1 -33 14 -11 17 -10 20 8 20 11 0 20 4
20 9 0 13 -105 19 -415 26 -238 4 -394 12 -585 30 -30 2 -95 14 -145 25 -49
11 -116 21 -147 22 -32 2 -58 6 -58 11 0 4 -8 7 -17 7 -16 1 -16 2 -2 13 51
40 17 87 -86 122 -18 6 -17 9 14 34 26 21 32 33 27 47 -6 15 -9 16 -15 5 -7
-11 -13 -8 -26 12 -11 17 -29 28 -56 32 -21 4 -39 11 -39 16 0 6 -15 16 -34
24 -19 8 -40 21 -48 29 -17 16 -93 56 -108 56 -6 0 -10 -77 -10 -229 l0 -230
37 -3 c26 -2 39 -8 41 -20 3 -15 -1 -16 -30 -7 -18 5 -36 9 -40 9 -5 0 -8
-425 -8 -944 0 -742 3 -945 13 -949 9 -4 9 -6 0 -6 -10 -1 -13 -166 -13 -787
l0 -785 43 34 c23 18 103 71 177 117 74 45 151 93 170 105 181 115 163 110
420 110 251 0 236 -6 198 73 -11 23 -22 60 -24 82 -2 22 -6 58 -8 80 l-4 41
81 -6 c45 -3 119 -11 165 -16 74 -10 82 -13 81 -33 -1 -42 -14 -97 -24 -99 -5
-1 -10 -18 -11 -37 -6 -102 -10 -123 -24 -131 -25 -13 -54 -22 -64 -20 -4 1
-6 -13 -2 -31 6 -32 4 -35 -51 -67 -134 -79 -298 -184 -367 -236 -41 -30 -84
-55 -95 -55 -12 0 -21 -4 -21 -10 0 -5 -11 -10 -25 -10 -36 0 -366 -84 -585
-149 -15 -5 -26 -16 -28 -30 l-3 -22 340 1 c203 1 341 5 343 11 2 5 28 12 58
16 30 3 61 10 68 16 7 5 52 18 100 29 48 10 103 23 122 27 19 5 49 12 67 16
l32 7 -9 -32 c-9 -31 -8 -32 18 -27 15 3 85 23 157 46 281 90 828 169 1098
158 65 -2 120 -1 123 4 6 11 -22 104 -41 134 -12 20 -18 50 -31 147 -5 39 -3
49 10 54 27 10 22 25 81 -243 10 -45 21 -80 25 -78 4 2 16 -2 26 -10 35 -26
54 -19 56 23 l1 37 4 -35 c3 -19 8 -38 11 -42 4 -4 72 -14 152 -22 161 -17
211 -26 332 -56 99 -25 347 -111 436 -151 l64 -29 1179 0 1179 0 0 2190 0
2190 -539 0 c-349 0 -542 -4 -546 -10z m-4528 -466 c-3 -3 -12 -4 -19 -1 -8 3
-5 6 6 6 11 1 17 -2 13 -5z m3073 -262 c0 -10 -20 -22 -187 -108 -82 -42 -152
-80 -158 -85 -5 -5 -17 -9 -27 -9 -10 0 -18 -4 -18 -10 0 -5 -7 -10 -16 -10
-46 0 12 39 191 129 201 101 215 107 215 93z m-1315 -160 c-3 -3 -11 0 -18 7
-9 10 -8 11 6 5 10 -3 15 -9 12 -12z m-660 -52 c0 -34 -1 -35 -41 -38 -36 -3
-42 0 -48 20 -14 53 -9 59 42 56 47 -3 47 -3 47 -38z m185 24 c0 -17 -22 -14
-28 4 -2 7 3 12 12 12 9 0 16 -7 16 -16z m250 -35 l0 -40 -42 3 c-42 3 -43 4
-46 41 l-3 37 45 0 46 0 0 -41z m-300 18 c0 -13 -79 -51 -87 -43 -3 3 66 47
85 55 1 1 2 -5 2 -12z m760 -27 l0 -40 -45 0 -45 0 0 40 0 40 45 0 45 0 0 -40z
m1070 25 c0 -8 -7 -15 -15 -15 -16 0 -20 12 -8 23 11 12 23 8 23 -8z m-610
-35 l0 -40 -46 0 c-45 0 -45 0 -43 33 4 45 6 47 50 47 39 0 39 0 39 -40z m438
-1 c3 -41 -12 -53 -54 -43 -19 5 -24 13 -24 38 0 41 7 48 45 44 27 -3 30 -7
33 -39z m373 26 c3 -2 3 -21 1 -40 -4 -35 -6 -36 -41 -33 -32 3 -36 6 -33 28
4 42 10 50 40 50 16 0 31 -2 33 -5z m140 -18 c-13 -13 -26 -3 -16 12 3 6 11 8
17 5 6 -4 6 -10 -1 -17z m169 -22 c0 -34 -1 -35 -41 -35 -38 0 -41 2 -35 23 3
12 6 28 6 35 0 7 14 12 35 12 33 0 35 -2 35 -35z m-565 -156 c77 0 209 -3 293
-6 l154 -6 -4 -156 -3 -156 45 -6 45 -6 -46 -1 -47 -2 0 -42 c-1 -28 -7 -48
-19 -59 -10 -8 -31 -29 -47 -46 l-28 -31 22 -12 c18 -9 25 -8 41 6 10 9 21 15
22 13 2 -2 2 -37 -1 -76 l-4 -73 -73 0 -73 0 -20 43 c-29 62 -46 73 -86 59
-18 -7 -35 -12 -38 -12 -4 0 -9 26 -13 58 -14 134 -29 162 -84 162 -31 0 -41
-14 -41 -61 0 -31 -16 -37 -50 -19 -15 8 -22 4 -39 -25 -11 -20 -28 -35 -38
-35 -25 1 -53 24 -53 43 0 9 -5 19 -11 22 -6 4 -9 19 -8 33 2 19 -7 38 -29 62
-38 41 -38 43 -11 80 18 23 20 36 15 73 -7 48 8 97 30 97 21 0 44 -42 44 -82
0 -20 5 -40 10 -43 17 -10 11 67 -8 104 -44 86 -211 98 -266 19 -20 -28 -21
-49 -1 -42 11 5 15 -1 15 -19 0 -14 9 -31 21 -38 15 -11 22 -28 25 -64 l4 -50
-19 40 c-11 22 -23 49 -26 60 -6 17 -9 15 -20 -15 -8 -22 -9 -44 -4 -58 12
-31 11 -32 -5 -32 -8 0 -22 -10 -31 -22 -14 -21 -14 -23 2 -29 14 -5 10 -11
-23 -32 -36 -22 -84 -94 -84 -124 0 -13 -40 -34 -50 -28 -9 6 -7 13 18 62 13
25 16 45 4 26 -6 -10 -86 -13 -320 -15 -211 -2 -315 -7 -320 -14 -4 -6 -16
-15 -26 -21 -17 -9 -11 -13 38 -23 31 -6 92 -11 134 -10 42 1 156 1 252 0 204
-3 154 -17 -66 -19 -182 -1 -224 -8 -224 -35 0 -34 -28 -61 -78 -76 -26 -7
-35 -4 -57 16 -14 13 -31 24 -37 24 -6 0 -20 8 -30 17 -16 14 -37 17 -122 15
-57 -1 -143 -8 -191 -17 -49 -8 -90 -13 -93 -10 -2 2 -19 -2 -38 -10 -27 -11
-33 -11 -38 0 -3 8 0 16 7 19 7 2 0 5 -15 5 -16 1 -28 -3 -28 -9 0 -17 -161
-53 -229 -51 -19 1 -44 -5 -56 -13 -19 -12 -22 -13 -21 -1 1 15 3 15 -60 15
-42 0 -45 -1 -38 -22 6 -22 6 -22 -17 2 -18 18 -47 30 -111 44 -99 21 -100 23
-86 112 5 33 8 78 5 102 -2 23 -1 42 4 42 5 0 9 -6 9 -14 0 -22 37 -7 44 17 3
12 6 35 6 51 0 22 -4 27 -16 22 -9 -3 -24 -6 -35 -6 -11 0 -19 -7 -19 -17 -1
-14 -6 -11 -25 12 -14 17 -33 38 -43 49 -16 18 -16 18 6 12 15 -5 24 -3 28 8
8 21 -15 76 -31 76 -29 0 -45 -13 -45 -36 0 -15 -6 -24 -15 -24 -8 0 -24 -5
-35 -12 -18 -12 -17 -13 11 -25 27 -11 30 -17 27 -50 -3 -33 -7 -38 -31 -41
-30 -4 -77 21 -77 40 0 6 8 20 17 31 18 20 17 20 -16 14 -18 -4 -44 -7 -57 -7
-19 0 -24 -5 -24 -24 0 -26 -37 -56 -69 -56 -11 0 -28 11 -37 25 -17 26 -30
30 -53 16 -10 -6 -10 -13 -2 -29 22 -40 121 -55 168 -25 24 16 27 16 55 0 17
-10 51 -17 79 -17 53 0 52 1 49 -67 -1 -24 3 -43 9 -43 14 0 33 -76 25 -102
-3 -11 -9 -17 -13 -11 -3 5 -17 9 -31 10 -146 5 -324 15 -360 20 -40 5 -42 6
-22 14 40 15 19 33 -44 36 -32 2 -77 12 -99 23 -90 41 -112 48 -126 39 -26
-16 -39 -10 -39 21 0 17 -10 44 -21 60 -19 25 -21 38 -17 119 2 50 9 96 15
102 7 7 5 23 -5 53 -9 23 -13 50 -9 59 10 25 68 22 110 -7 19 -13 38 -22 40
-19 3 2 21 0 41 -5 31 -9 38 -8 46 9 16 30 90 26 128 -6 22 -18 49 -27 103
-35 88 -11 270 -22 394 -24 50 0 95 -4 102 -9 6 -4 37 -11 70 -16 116 -19 184
-42 219 -78 19 -18 34 -42 34 -51 0 -20 33 -52 53 -52 7 0 17 -4 22 -9 6 -5
28 -11 50 -13 32 -2 40 -7 40 -23 0 -21 -4 -22 -82 -24 -31 -1 -43 -5 -43 -16
0 -11 12 -15 48 -15 26 0 64 -3 86 -7 l38 -6 -3 44 -4 44 80 3 c113 4 122 22
11 22 -117 0 -103 15 19 18 53 2 106 7 118 12 17 7 18 9 5 9 -24 1 -23 10 4
32 18 16 61 25 92 20 24 -5 47 12 41 30 -4 13 -2 19 7 17 7 -2 14 7 16 20 2
12 -2 22 -8 22 -7 0 -9 -7 -6 -16 5 -12 1 -14 -15 -9 -16 5 -20 4 -15 -6 4 -8
2 -7 -6 2 -7 9 -24 16 -38 15 -22 -1 -25 3 -22 27 2 16 -2 35 -8 42 -8 9 -6
17 5 29 9 9 21 17 26 17 19 3 24 5 36 12 7 4 22 3 33 -3 27 -14 56 -5 63 20 8
30 43 24 82 -13 24 -23 31 -37 25 -47 -6 -9 -5 -17 3 -22 7 -4 13 -12 13 -18
1 -5 2 -14 3 -20 0 -5 18 -9 39 -8 32 1 44 -5 80 -43 35 -35 46 -41 60 -33 13
9 23 7 42 -5 19 -13 55 -16 181 -17 l158 -1 7 26 7 26 13 -30 c12 -27 13 -16
14 106 0 75 3 139 8 143 4 5 122 6 262 2 140 -3 318 -6 395 -7z m1445 -53 c0
-22 -6 -26 -42 -30 -57 -8 -103 -10 -161 -8 -44 2 -48 4 -45 24 3 26 38 38 38
14 0 -19 17 -21 23 -3 3 9 8 9 21 -2 15 -13 19 -13 27 0 8 12 10 12 18 -1 9
-12 11 -12 17 3 3 9 10 17 16 17 5 0 7 -4 4 -9 -3 -5 5 -8 19 -7 14 0 27 7 30
14 8 22 35 13 35 -12z m140 -110 c0 -41 18 -56 37 -31 11 17 13 13 13 -32 0
-29 -4 -54 -10 -58 -5 -3 -6 -13 -3 -21 4 -10 -10 -32 -38 -61 -27 -28 -36
-43 -24 -38 34 13 60 11 60 -5 0 -9 -11 -16 -25 -18 -41 -4 -161 -4 -165 0 -2
2 -7 23 -11 46 -5 34 -4 42 9 42 22 0 30 31 13 48 -18 18 -48 9 -40 -12 5 -13
0 -13 -31 -5 -20 6 -38 9 -40 7 -2 -2 2 -24 7 -50 8 -34 8 -54 1 -70 l-11 -23
-9 24 c-9 23 -10 24 -15 4 -5 -18 -13 -21 -57 -20 -41 1 -51 4 -46 15 7 19 -3
52 -16 52 -6 0 -8 -8 -5 -18 8 -25 -27 -57 -51 -47 -10 5 -24 7 -30 6 -7 -1
-13 7 -13 19 0 11 5 20 10 20 6 0 10 -4 10 -10 0 -5 3 -10 8 -10 4 0 8 16 9
35 3 39 -1 42 -25 19 -15 -16 -17 -15 -29 15 -14 33 -23 37 -54 21 -18 -10
-19 -7 -19 80 0 65 4 90 13 91 18 2 389 15 490 17 l87 2 0 -34z m60 24 c0 -5
-4 -10 -10 -10 -5 0 -10 5 -10 10 0 6 5 10 10 10 6 0 10 -4 10 -10z m-1894
-31 c3 -5 -1 -19 -8 -31 -6 -13 -13 -29 -14 -36 -1 -7 -11 -25 -21 -40 -9 -15
-19 -40 -20 -55 -4 -36 -21 -69 -34 -62 -12 8 -12 48 0 61 20 19 61 106 55
115 -3 6 0 16 6 24 10 12 9 15 -4 15 -16 0 -21 11 -10 22 7 8 43 -2 50 -13z
m-108 -158 c3 -8 -1 -12 -9 -9 -7 2 -15 10 -17 17 -3 8 1 12 9 9 7 -2 15 -10
17 -17z m87 -41 c-3 -5 -12 -10 -18 -10 -7 0 -6 4 3 10 19 12 23 12 15 0z
m772 -6 c-3 -3 -12 -4 -19 -1 -8 3 -5 6 6 6 11 1 17 -2 13 -5z m513 -3 c0 -6
-5 -13 -10 -16 -8 -5 -7 -11 1 -21 15 -18 4 -31 -14 -16 -7 6 -50 14 -95 18
-45 4 -79 10 -77 14 3 5 40 8 82 9 43 0 79 5 81 11 5 13 32 13 32 1z m60 -31
c0 -11 -4 -20 -9 -20 -5 0 -7 9 -4 20 3 11 7 20 9 20 2 0 4 -9 4 -20z m-2080
-86 c0 -8 -4 -14 -10 -14 -5 0 -10 9 -10 21 0 11 5 17 10 14 6 -3 10 -13 10
-21z m930 -13 c0 -2 -8 -10 -17 -18 -17 -13 -17 -13 2 -11 18 3 20 -2 17 -52
-4 -65 -7 -68 -32 -52 -17 10 -20 10 -20 -5 0 -15 -4 -13 -20 7 -13 17 -20 41
-20 76 0 28 2 53 4 55 6 6 86 6 86 0z m-3226 -88 c-4 -16 -8 -48 -9 -73 0 -38
-3 -45 -21 -48 -11 -2 -26 4 -33 12 -11 13 -8 19 13 39 14 13 26 34 26 45 0
28 10 52 22 52 6 0 7 -10 2 -27z m180 18 c3 -5 -5 -12 -19 -15 -16 -4 -27 -16
-31 -34 -11 -50 -13 -53 -41 -50 -28 3 -45 34 -26 47 5 3 16 18 26 34 13 21
25 27 52 27 18 0 36 -4 39 -9z m4865 -9 c13 -24 -12 -64 -34 -56 -21 8 -19 51
3 63 22 13 20 14 31 -7z m375 -8 c9 -22 -11 -54 -34 -54 -20 0 -25 10 -20 40
4 30 44 40 54 14z m271 -4 c0 -9 -8 -14 -19 -13 -11 1 -25 -6 -31 -14 -13 -18
-35 -10 -35 12 0 14 45 35 70 32 8 -1 15 -9 15 -17z m85 -11 c0 -12 -29 -24
-37 -16 -3 4 -3 13 0 21 6 16 37 11 37 -5z m110 -4 c0 -8 -7 -15 -15 -15 -8 0
-15 7 -15 15 0 8 7 15 15 15 8 0 15 -7 15 -15z m-721 -21 c35 -7 43 -38 14
-59 -16 -12 -13 -14 22 -21 86 -16 -52 -24 -225 -14 -43 3 -33 5 45 9 l100 6
-1 43 c0 23 2 42 6 42 4 0 22 -3 39 -6z m-4895 -26 c8 -32 7 -38 -4 -38 -12 0
-30 41 -23 53 8 14 21 7 27 -15z m4494 -45 c-10 -2 -28 -2 -40 0 -13 2 -5 4
17 4 22 1 32 -1 23 -4z m577 -23 c4 -6 -6 -10 -22 -9 -25 0 -26 1 -8 9 11 5
21 9 22 9 1 1 5 -3 8 -9z m-4255 -76 c0 -2 -12 -4 -26 -4 -14 0 -23 4 -20 9 6
8 46 4 46 -5z m1468 -92 c2 -7 -3 -12 -12 -12 -9 0 -16 7 -16 16 0 17 22 14
28 -4z m2189 -36 c1 -1 -1 -13 -4 -28 -3 -17 -10 -25 -18 -21 -8 2 -12 10 -9
18 4 9 -2 11 -20 8 -28 -6 -29 -4 -20 21 4 11 14 14 37 9 18 -3 33 -6 34 -7z
m-647 -10 c0 -16 -14 -36 -26 -36 -17 0 -18 -17 -1 -23 10 -4 10 -7 0 -18 -15
-15 -17 -33 -4 -25 9 6 24 -62 16 -74 -2 -4 -32 -15 -66 -25 -51 -16 -63 -24
-71 -47 -13 -38 -26 -35 -25 5 0 17 -3 55 -7 82 -5 42 -4 47 6 30 6 -11 18
-26 25 -33 11 -11 13 -9 13 12 0 17 5 26 16 26 11 0 14 -5 10 -16 -4 -11 -1
-14 12 -12 9 2 19 14 20 28 2 14 8 30 13 36 6 8 4 18 -7 29 -13 12 -14 19 -5
24 6 4 9 15 5 24 -5 14 1 17 35 17 23 0 41 -2 41 -4z m-652 -71 c2 -33 7 -62
12 -65 5 -3 0 -30 -10 -60 -28 -82 -35 -182 -17 -220 14 -26 14 -30 1 -30 -16
0 -15 -4 11 -80 11 -30 17 -35 46 -36 72 -3 80 -4 74 -14 -3 -5 -15 -10 -26
-10 -10 0 -19 -5 -19 -11 0 -6 -7 -3 -16 5 -24 24 -44 20 -44 -10 0 -23 3 -25
25 -20 31 8 33 -4 4 -22 -12 -8 -18 -17 -13 -22 13 -13 83 -20 89 -9 10 15 22
10 23 -8 1 -10 3 -47 4 -83 l3 -65 58 1 c59 0 71 -8 37 -26 -24 -13 -25 -23
-3 -46 16 -16 16 -16 -6 -9 -22 7 -23 5 -17 -20 10 -39 -11 -49 -46 -24 -25
18 -29 19 -34 5 -4 -9 -1 -23 5 -30 10 -12 7 -15 -16 -20 -74 -16 -103 -17
-101 -5 2 6 -3 14 -10 16 -8 3 -12 -1 -10 -8 1 -8 -5 -26 -15 -40 -10 -14 -22
-55 -27 -90 -14 -95 -30 -169 -48 -211 -9 -22 -12 -51 -9 -72 7 -42 -1 -76
-18 -76 -6 0 -34 12 -61 26 -107 58 -140 45 -36 -13 54 -31 55 -32 26 -33 -17
0 -52 3 -78 6 -40 6 -49 11 -61 38 l-13 31 -1 -32 c-1 -31 -2 -32 -38 -26 -23
3 -50 17 -68 34 l-30 29 0 120 c0 82 -4 123 -13 132 -6 6 -12 20 -12 30 0 10
-5 18 -11 18 -7 0 -9 12 -5 36 6 27 2 44 -13 70 -26 44 -26 47 0 34 11 -7 22
-10 23 -8 11 19 27 61 36 94 5 23 19 53 30 67 l21 26 -26 17 c-14 9 -25 22
-25 28 0 7 23 39 50 71 28 33 60 75 71 93 12 17 24 32 29 32 4 0 13 -21 20
-47 7 -27 19 -60 26 -75 l14 -26 66 20 c38 11 80 17 96 14 15 -3 28 -1 28 4 0
6 8 10 17 10 27 0 9 10 -26 14 -30 3 -60 28 -61 50 0 16 40 94 56 106 7 7 14
21 14 30 0 16 -4 17 -29 7 -20 -7 -27 -15 -23 -26 5 -14 3 -13 -11 1 -15 15
-16 22 -5 63 10 36 10 52 -1 78 -7 17 -20 69 -28 115 -16 91 -9 118 30 106 11
-3 23 -1 27 6 5 8 12 7 24 -5 13 -14 16 -14 16 -2 0 8 7 14 16 13 9 0 19 5 21
12 4 10 -3 12 -28 7 -23 -4 -40 -1 -54 9 -11 9 -14 16 -7 16 7 0 12 13 12 31
l0 30 53 -3 52 -3 3 -60z m1252 25 c0 -5 -5 -10 -11 -10 -5 0 -7 5 -4 10 3 6
8 10 11 10 2 0 4 -4 4 -10z m47 -35 c0 -8 -6 -15 -13 -15 -18 0 -27 17 -12 23
21 9 25 8 25 -8z m-1873 -11 c9 -22 8 -24 -9 -24 -8 0 -15 9 -15 20 0 24 15
27 24 4z m-2559 -4 c3 -5 -2 -10 -11 -10 -16 0 -16 -1 1 -20 10 -11 14 -20 8
-20 -5 0 -20 12 -34 27 -13 14 -19 23 -12 19 6 -3 14 -2 18 4 8 13 22 13 30 0z
m4064 -2 c18 -11 18 -13 -1 -67 -11 -31 -24 -62 -30 -68 -7 -9 -7 -13 1 -13
26 0 8 -18 -26 -28 -21 -6 -63 -20 -93 -31 -47 -18 -63 -20 -109 -11 -30 5
-70 10 -88 10 -36 0 -38 2 -23 31 13 23 57 47 129 69 48 15 61 16 105 4 69
-19 82 -18 66 1 -7 8 -22 15 -34 15 -11 0 -27 4 -35 9 -12 8 -12 12 -2 25 15
17 36 22 26 6 -3 -5 -1 -10 5 -10 6 0 8 -4 5 -10 -12 -19 18 -10 36 12 22 24
17 37 -6 18 -13 -11 -14 -10 -9 5 4 10 1 21 -7 26 -11 7 -9 9 7 9 11 0 25 -5
32 -12 9 -9 13 -7 18 5 7 20 9 20 33 5z m-1121 -17 c3 -8 -1 -12 -9 -9 -7 2
-15 10 -17 17 -3 8 1 12 9 9 7 -2 15 -10 17 -17z m1549 13 c-3 -3 -12 -4 -19
-1 -8 3 -5 6 6 6 11 1 17 -2 13 -5z m53 2 c0 -2 -9 -6 -20 -9 -11 -3 -20 -1
-20 4 0 5 9 9 20 9 11 0 20 -2 20 -4z m-4644 -47 c-10 -37 -11 -39 -17 -18
-12 43 -10 59 10 59 17 0 17 -4 7 -41z m793 0 c-18 -11 -22 -5 -14 22 7 20 8
21 17 4 8 -12 7 -20 -3 -26z m3768 -11 c-3 -8 -6 -5 -6 6 -1 11 2 17 5 13 3
-3 4 -12 1 -19z m-2498 -21 c-19 -13 -36 -22 -39 -20 -7 6 43 43 59 43 8 0 -1
-11 -20 -23z m545 -44 c-3 -32 -13 -70 -20 -85 -8 -15 -14 -37 -14 -50 -1 -22
-2 -22 -26 7 -21 25 -24 37 -20 72 4 32 2 44 -11 51 -23 13 -12 34 28 48 67
24 71 21 63 -43z m-1904 8 c8 -5 13 -17 12 -27 -5 -26 -9 -29 -26 -15 -8 7
-20 10 -26 6 -9 -5 -15 17 -7 29 1 2 -7 13 -17 25 l-19 21 34 -16 c19 -8 41
-19 49 -23z m1091 19 c59 -18 89 -39 89 -63 0 -2 -18 -7 -41 -11 -23 -4 -65
-15 -93 -25 -40 -14 -68 -17 -117 -12 -57 5 -64 9 -67 29 -2 12 -7 22 -10 22
-15 0 -114 -39 -128 -51 -10 -8 -39 -9 -99 -4 -71 6 -87 10 -96 27 -13 24 3
38 79 67 66 26 84 26 161 2 l61 -19 67 28 c83 35 106 36 194 10z m2719 1 l25
-7 -29 -8 c-17 -4 -33 -3 -39 3 -14 14 -57 14 -57 1 0 -5 -6 -7 -14 -4 -9 3
-17 -3 -21 -15 -8 -27 -40 -44 -68 -36 -20 5 -19 4 3 -9 25 -15 25 -15 -18
-16 -40 0 -42 1 -32 20 28 53 171 93 250 71z m264 -15 c-28 -13 -55 -29 -58
-35 -4 -6 -12 -11 -19 -11 -22 0 28 39 68 54 61 22 66 18 9 -8z m-4899 -110
c-3 -24 -1 -44 7 -54 11 -13 10 -15 -9 -10 -13 4 -23 2 -23 -3 0 -5 16 -9 37
-9 48 0 39 -6 -18 -12 -37 -4 -46 -2 -45 10 1 9 -8 16 -21 17 -27 2 -28 3 -38
34 -6 19 -4 23 9 18 20 -8 26 4 31 54 6 59 13 63 46 26 26 -28 29 -37 24 -71z
m119 80 c7 -28 -2 -58 -15 -50 -12 7 -12 74 0 74 5 0 12 -11 15 -24z m1004
-67 c2 -19 -2 -47 -7 -62 -10 -27 -12 -27 -101 -27 -94 0 -105 6 -77 43 16 22
153 88 172 83 6 -1 11 -18 13 -37z m-299 4 c0 -16 -4 -37 -8 -48 -7 -16 -9
-14 -14 14 -10 49 -9 61 8 61 10 0 15 -9 14 -27z m3071 -13 c10 -6 4 -12 -25
-24 -21 -9 -53 -28 -71 -41 -18 -14 -38 -25 -44 -25 -6 0 -9 -4 -6 -9 15 -23
-7 -41 -49 -41 -72 0 -105 10 -105 32 0 33 51 70 136 99 77 27 126 30 164 9z
m-1630 0 c0 -5 -4 -10 -10 -10 -5 0 -10 5 -10 10 0 6 5 10 10 10 6 0 10 -4 10
-10z m-1653 -29 c73 -18 113 -42 113 -68 0 -7 -8 -13 -17 -13 -10 0 -60 -13
-112 -30 -71 -22 -107 -28 -150 -25 -31 3 -87 5 -124 7 -38 1 -70 5 -73 9 -9
15 20 58 50 73 64 33 162 65 201 65 22 1 73 -8 112 -18z m998 -55 c39 -9 49
-15 47 -30 -4 -21 10 -18 97 20 64 29 64 29 163 7 77 -16 78 -17 78 -48 0 -31
-1 -31 -79 -49 -117 -27 -121 -33 -116 -181 2 -66 8 -142 13 -169 l10 -48 -30
6 c-17 3 -38 6 -47 7 -11 0 -9 3 7 9 12 5 22 16 22 25 0 21 -17 19 -23 -2 -3
-10 -5 -4 -6 13 -1 27 -5 32 -26 30 -24 -1 -43 -36 -30 -56 3 -5 1 -11 -5 -15
-5 -3 -10 3 -10 13 0 11 -7 36 -15 55 -8 20 -15 60 -15 89 1 49 2 51 15 34 8
-11 17 -17 20 -14 10 10 -10 243 -20 243 -5 0 -11 -31 -13 -69 l-3 -70 -19 30
c-19 28 -20 28 -20 5 l0 -24 -19 21 c-10 12 -23 22 -30 22 -6 0 -11 5 -11 10
0 6 -4 10 -10 10 -5 0 -10 -11 -10 -24 0 -28 -27 -43 -33 -18 -3 11 -5 8 -6
-8 -2 -30 -21 -65 -21 -39 0 22 38 208 46 220 7 12 36 10 99 -5z m2965 -3 c1
-20 21 -150 26 -166 4 -13 12 -17 25 -14 16 4 19 0 19 -29 0 -28 4 -34 21 -34
15 0 19 -5 15 -17 -3 -10 -8 -64 -12 -120 -7 -103 1 -129 23 -80 12 24 10 27
37 -60 9 -28 16 -60 16 -70 0 -10 14 -44 29 -76 26 -52 28 -58 12 -70 -19 -14
-41 -51 -41 -69 0 -7 -16 -23 -35 -36 -19 -12 -35 -30 -35 -40 0 -10 -7 -27
-15 -38 -8 -10 -15 -27 -15 -36 0 -10 -4 -18 -8 -18 -10 0 -32 45 -32 66 0 8
-8 29 -17 47 -9 18 -18 48 -20 67 -5 69 -20 132 -35 147 -20 19 -151 42 -243
43 -89 1 -144 24 -173 74 -21 35 -21 36 -2 36 13 0 22 10 28 33 11 38 0 56
-23 37 -20 -17 -21 8 0 36 16 21 20 64 6 64 -5 0 -11 -6 -14 -12 -2 -7 -8 -10
-12 -6 -10 9 3 78 15 78 5 0 7 -8 4 -17 -4 -12 1 -9 15 7 22 26 27 50 12 50
-9 0 -7 40 5 98 4 22 7 22 102 17 53 -4 118 -11 144 -17 l47 -10 50 53 c28 30
51 61 51 71 0 17 30 27 30 11z m42 -15 c-7 -7 -12 -8 -12 -2 0 14 12 26 19 19
2 -3 -1 -11 -7 -17z m-469 6 c-7 -3 -9 -13 -6 -22 7 -18 5 -17 -16 11 -12 15
-11 17 10 16 13 0 19 -3 12 -5z m-4009 -44 c8 -27 6 -35 -8 -46 -22 -16 -14
-44 13 -44 15 0 20 -10 25 -45 11 -72 -5 -80 -94 -45 -65 26 -133 29 -155 7
-9 -10 -25 -17 -36 -17 -17 0 -18 3 -7 20 11 17 10 22 -1 29 -8 6 -12 18 -8
31 4 16 2 20 -8 16 -9 -3 -12 0 -8 10 3 8 -3 21 -13 29 -17 12 -15 14 28 25
53 14 55 30 3 30 -38 0 -59 19 -23 21 13 1 60 2 105 3 45 1 84 3 86 6 3 3 25
4 49 4 40 -1 44 -4 52 -34z m4059 33 c-7 -2 -19 -2 -25 0 -7 3 -2 5 12 5 14 0
19 -2 13 -5z m47 -7 c0 -3 -4 -8 -10 -11 -5 -3 -10 -1 -10 4 0 6 5 11 10 11 6
0 10 -2 10 -4z m840 -48 c0 -11 -6 -15 -20 -11 -27 7 -29 13 -19 42 9 23 10
24 24 5 8 -10 15 -26 15 -36z m-2657 -11 c-9 -16 -26 12 -18 30 7 17 8 17 15
-2 4 -11 5 -24 3 -28z m1167 8 c0 -16 -18 -19 -44 -9 -25 10 -19 19 14 21 21
2 30 -2 30 -12z m-160 1 c0 -3 -4 -8 -10 -11 -5 -3 -10 -1 -10 4 0 6 5 11 10
11 6 0 10 -2 10 -4z m-2710 -36 c37 -31 63 -39 54 -16 -3 7 1 16 10 19 17 7
31 -22 17 -36 -5 -5 0 -22 15 -44 14 -21 24 -50 24 -71 0 -32 -2 -34 -27 -29
-16 3 -47 12 -70 21 -24 9 -89 18 -145 22 -128 7 -148 11 -148 29 0 11 -7 14
-27 10 -27 -6 -27 -6 3 8 17 8 40 27 51 42 24 34 113 73 168 74 31 1 49 -6 75
-29z m348 -75 c-5 -38 -13 -79 -18 -90 -5 -11 -11 -33 -13 -50 -4 -29 -4 -28
-6 5 -2 40 -19 73 -28 52 -2 -7 -12 -19 -20 -27 -8 -9 -19 -28 -23 -43 -6 -21
-8 -12 -9 38 -1 36 -4 82 -7 102 -6 34 -4 37 22 44 16 4 47 15 69 25 22 10 40
17 41 16 1 -1 -3 -33 -8 -72z m1342 56 c0 -6 -4 -13 -10 -16 -5 -3 -10 1 -10
9 0 9 5 16 10 16 6 0 10 -4 10 -9z m2604 -7 c8 -22 8 -24 -8 -24 -18 0 -29 16
-21 30 9 15 22 12 29 -6z m-1438 -41 c8 -12 10 -35 7 -65 -4 -31 -2 -48 5 -48
6 0 18 -3 28 -7 15 -6 16 -1 12 35 -6 43 2 52 43 52 10 0 19 5 19 10 0 6 5 10
10 10 6 0 10 -6 10 -14 0 -8 5 -16 11 -18 15 -5 25 -108 11 -108 -6 0 -19 23
-29 50 -10 28 -21 50 -25 50 -15 0 -26 -38 -34 -115 -4 -44 -9 -71 -11 -60 -9
44 -12 48 -29 35 -8 -7 -13 -19 -10 -27 4 -9 -3 -13 -19 -13 -18 0 -25 5 -25
20 0 13 5 18 15 14 8 -4 15 -1 15 5 0 6 -6 11 -12 11 -15 0 -40 48 -27 52 12
4 20 116 9 123 -6 3 -10 10 -10 16 0 15 22 10 36 -8z m-3189 -39 c-3 -3 -12
-4 -19 -1 -8 3 -5 6 6 6 11 1 17 -2 13 -5z m3120 -11 c-9 -9 -20 -13 -24 -9
-4 4 -1 11 7 16 25 16 35 11 17 -7z m1593 -17 c0 -18 -27 -29 -36 -14 -4 5 0
14 7 19 20 13 29 11 29 -5z m-3643 -43 c-3 -10 -5 -2 -5 17 0 19 2 27 5 18 2
-10 2 -26 0 -35z m3543 8 c0 -20 -5 -43 -10 -51 -8 -13 -10 -12 -10 4 0 14 -5
17 -25 12 -24 -6 -35 7 -15 19 6 3 10 16 10 28 0 16 6 22 25 23 22 2 25 -2 25
-35z m-4693 -23 c-3 -8 -6 -5 -6 6 -1 11 2 17 5 13 3 -3 4 -12 1 -19z m4823 2
c0 -5 -5 -10 -11 -10 -5 0 -7 5 -4 10 3 6 8 10 11 10 2 0 4 -4 4 -10z m-3170
-27 c0 -5 -5 -15 -10 -23 -8 -12 -10 -11 -10 8 0 12 5 22 10 22 6 0 10 -3 10
-7z m-502 -20 c7 -7 10 -18 7 -23 -4 -6 -1 -18 6 -26 10 -13 9 -21 -6 -47 -23
-40 -55 -77 -68 -77 -6 0 -2 9 8 20 10 11 13 20 7 20 -6 0 -14 -4 -17 -10 -3
-5 -15 -10 -26 -10 -11 0 -18 -4 -15 -9 4 -5 -2 -8 -11 -7 -22 4 -56 -33 -49
-51 3 -7 -1 -13 -9 -13 -21 0 -19 -20 3 -21 14 -1 14 -2 -3 -8 -11 -4 -37 -15
-57 -24 -40 -18 -74 -22 -82 -9 -15 25 23 105 97 205 l80 108 61 -3 c34 -2 67
-9 74 -15z m3431 3 c15 -17 2 -27 -27 -20 -12 4 -19 11 -15 20 7 18 27 18 42
0z m249 -27 c2 -11 -5 -16 -28 -16 -28 0 -39 15 -23 31 12 12 48 2 51 -15z
m-198 -10 c0 -6 -8 -8 -19 -4 -14 4 -21 0 -26 -15 -7 -23 -20 -26 -29 -7 -5
10 -7 10 -12 0 -9 -20 -24 -15 -24 7 0 13 5 18 14 14 8 -3 23 -1 33 5 24 14
63 14 63 0z m-1061 -33 c14 -8 40 -12 60 -9 29 4 39 0 50 -18 13 -22 13 -22
-40 -16 -30 4 -73 7 -97 7 l-42 0 16 25 c19 29 20 29 53 11z m1271 -8 c0 -13
-7 -32 -16 -43 -11 -15 -18 -17 -32 -9 -9 6 -19 21 -20 34 -3 19 0 22 16 18
13 -4 23 0 26 8 8 22 26 16 26 -8z m410 12 c11 -7 7 -10 -17 -10 -17 0 -39 -7
-47 -16 -9 -8 -16 -10 -16 -4 0 12 -103 12 -137 -1 -13 -5 -23 -7 -23 -4 0 28
204 58 240 35z m-5000 -49 c30 -5 95 -15 145 -21 49 -6 91 -12 92 -14 1 -1 -2
-31 -7 -66 -5 -36 -11 -94 -15 -130 -8 -89 -25 -170 -34 -170 -5 0 -14 7 -21
15 -7 8 -23 15 -37 15 -13 0 -26 7 -29 15 -7 18 -35 21 -31 3 6 -30 -107 -50
-158 -28 -13 6 -15 9 -5 9 10 1 8 6 -7 16 -18 13 -26 13 -41 4 -28 -18 -52 -4
-52 28 0 15 -6 45 -14 67 -11 33 -14 35 -19 16 -11 -41 -32 -17 -28 31 4 51 7
59 26 59 13 0 61 -90 80 -149 5 -18 9 -20 15 -10 5 7 7 16 4 21 -7 10 19 48
33 48 17 0 26 55 15 92 -16 50 -24 126 -17 148 5 14 13 19 28 15 12 -2 47 -9
77 -14z m3080 0 c0 -6 -4 -13 -10 -16 -5 -3 -10 1 -10 9 0 9 5 16 10 16 6 0
10 -4 10 -9z m1203 -33 c5 -39 -16 -81 -27 -52 -8 20 3 84 14 84 4 0 10 -15
13 -32z m47 -13 c0 -25 -4 -45 -10 -45 -5 0 -10 20 -10 45 0 25 5 45 10 45 6
0 10 -20 10 -45z m547 39 c-3 -3 -12 -4 -19 -1 -8 3 -5 6 6 6 11 1 17 -2 13
-5z m299 -40 c31 -14 53 -28 51 -31 -3 -2 -31 9 -63 26 -72 37 -63 41 12 5z
m-3926 -3 c0 -5 -20 -12 -44 -15 -24 -4 -52 -13 -62 -21 -12 -9 -40 -14 -79
-13 -59 2 -59 2 -11 5 28 3 54 11 60 19 16 21 136 43 136 25z m115 -1 c-3 -5
-12 -7 -20 -3 -21 7 -19 13 6 13 11 0 18 -4 14 -10z m3215 -5 c0 -8 -4 -15
-10 -15 -5 0 -10 7 -10 15 0 8 5 15 10 15 6 0 10 -7 10 -15z m316 -1 c21 -10
34 -24 34 -35 0 -23 0 -23 -36 -4 -16 8 -38 15 -49 16 -20 0 -20 1 0 8 19 8
19 8 0 19 -19 11 -19 11 -2 12 11 0 34 -7 53 -16z m151 -26 c3 -29 -71 -25
-108 6 -15 13 -26 26 -24 28 2 2 33 -1 67 -6 51 -8 64 -13 65 -28z m-1967 1
c0 -10 -5 -19 -11 -19 -6 0 -9 6 -6 14 3 7 0 19 -6 25 -9 9 -8 11 6 6 9 -4 17
-16 17 -26z m1424 16 c3 -8 1 -15 -4 -15 -6 0 -10 7 -10 15 0 8 2 15 4 15 2 0
6 -7 10 -15z m-128 -14 c0 -16 -4 -18 -18 -10 -19 10 -16 29 5 29 7 0 13 -9
13 -19z m-3999 -23 c-3 -8 -6 -5 -6 6 -1 11 2 17 5 13 3 -3 4 -12 1 -19z
m4378 8 c43 -22 11 -28 -36 -6 -38 17 -40 20 -18 20 15 0 39 -6 54 -14z
m-3313 -21 c73 -50 228 -284 228 -345 0 -39 -112 1 -133 48 -6 15 -17 31 -24
35 -7 4 -13 14 -13 22 0 7 -7 21 -16 29 -9 9 -19 29 -24 44 -4 15 -13 26 -20
24 -7 -2 -10 3 -7 12 4 11 1 13 -10 9 -12 -5 -15 -2 -10 10 5 12 1 17 -13 17
-11 0 -20 6 -20 14 0 7 -10 26 -21 40 -16 20 -28 26 -43 22 -19 -5 -18 -3 4
14 14 10 36 21 50 23 14 2 27 5 30 6 3 0 22 -10 42 -24z m3248 -10 c20 -12
134 -14 142 -2 5 9 17 8 50 -2 24 -7 58 -13 76 -12 17 1 32 -3 32 -8 0 -12
-25 -38 -41 -43 -9 -3 -9 -9 0 -26 6 -12 10 -22 7 -22 -2 0 -10 -2 -18 -5 -10
-4 -13 4 -10 36 4 38 3 40 -16 30 -14 -7 -18 -17 -15 -31 5 -17 0 -20 -28 -21
-31 0 -32 -1 -11 -9 31 -13 28 -26 -10 -36 -32 -10 -51 -34 -25 -34 27 0 7
-51 -24 -62 -16 -5 -29 -14 -29 -19 0 -5 -11 -9 -25 -9 -15 0 -25 6 -25 14 0
15 -49 36 -86 36 -13 0 -24 5 -24 10 0 6 -7 10 -15 10 -8 0 -15 7 -15 16 0 13
-7 15 -32 10 -26 -4 -47 2 -101 32 -37 21 -65 41 -61 45 3 3 12 3 20 0 8 -3
14 0 14 6 0 9 5 9 20 1 11 -6 18 -15 15 -20 -3 -5 10 -14 29 -21 19 -7 33 -16
30 -21 -3 -4 2 -8 10 -8 9 0 16 4 16 8 0 16 -75 90 -98 97 -23 7 -26 32 -3 28
6 -2 11 2 11 7 0 6 -5 10 -12 10 -8 0 -8 3 -2 9 5 6 25 5 51 -1 34 -10 45 -9
65 4 23 16 114 18 138 3z m364 0 c-4 -8 -8 -15 -10 -15 -2 0 -4 7 -4 15 0 8 4
15 10 15 5 0 7 -7 4 -15z m-749 -26 c9 -27 -13 -42 -33 -23 -16 17 -9 44 12
44 8 0 18 -10 21 -21z m589 -154 c6 -16 -3 -19 -28 -9 -22 8 -20 24 3 24 10 0
21 -7 25 -15z m-5250 -21 c31 -12 15 -21 -49 -27 -36 -4 -117 -23 -180 -44
-95 -32 -111 -35 -97 -19 22 25 136 77 187 86 53 10 120 11 139 4z m4741 -32
c-3 -3 -11 0 -18 7 -9 10 -8 11 6 5 10 -3 15 -9 12 -12z m-4545 -30 c0 -4 -15
-12 -34 -18 -27 -8 -33 -8 -29 2 7 18 63 32 63 16z m2450 -76 c0 -11 -19 -15
-25 -6 -3 5 1 10 9 10 9 0 16 -2 16 -4z m-1681 -43 c-1 -66 -25 -213 -36 -224
-22 -22 -25 -4 -14 76 6 42 11 99 11 126 0 42 3 49 20 49 15 0 20 -6 19 -27z
m3806 -123 c3 -6 -4 -10 -17 -10 -18 0 -20 2 -8 10 19 12 18 12 25 0z m-3878
-192 c-3 -8 -6 -5 -6 6 -1 11 2 17 5 13 3 -3 4 -12 1 -19z m4467 -31 c-3 -7
-22 -20 -42 -29 -56 -26 -120 -95 -133 -141 -6 -22 -11 -62 -12 -88 -1 -28 -7
-49 -13 -49 -7 0 -10 18 -7 52 6 65 19 112 45 157 14 25 15 31 4 22 -8 -7 -20
-11 -26 -9 -16 5 49 71 105 107 l50 32 17 -21 c9 -12 15 -26 12 -33z m-4544
-68 c0 -5 -4 -9 -10 -9 -5 0 -10 7 -10 16 0 8 5 12 10 9 6 -3 10 -10 10 -16z
m2070 -37 c0 -5 -17 -16 -37 -25 l-38 -17 28 25 c28 25 47 32 47 17z m-260
-166 c0 -2 -7 -7 -16 -10 -8 -3 -12 -2 -9 4 6 10 25 14 25 6z"/>
<path d="M3612 3150 l-3 -40 96 0 95 0 0 40 0 40 -93 0 -93 0 -2 -40z m151 20
c11 0 17 -8 17 -24 0 -23 -3 -24 -75 -24 -72 0 -75 1 -75 23 0 27 24 35 80 29
19 -2 43 -4 53 -4z"/>
<path d="M105 3140 c-9 -14 13 -50 31 -50 15 0 35 39 27 53 -6 10 -51 9 -58
-3z"/>
<path d="M363 3118 c-4 -7 -10 -31 -13 -53 -5 -35 -8 -40 -30 -37 -74 8 -134
-74 -100 -139 15 -27 68 -53 84 -40 6 5 31 11 55 12 23 2 44 5 46 8 1 4 6 34
10 69 l7 62 -41 0 c-23 0 -41 5 -41 10 0 6 18 28 41 51 42 42 46 69 10 69 -11
0 -23 -6 -28 -12z m-19 -160 c21 -29 20 -51 -2 -71 -15 -13 -22 -14 -42 -4
-32 16 -48 60 -30 81 18 23 56 20 74 -6z"/>
<path d="M3200 3050 c0 -5 5 -10 10 -10 6 0 10 5 10 10 0 6 -4 10 -10 10 -5 0
-10 -4 -10 -10z"/>
<path d="M125 3040 c-3 -6 -4 -19 0 -29 3 -10 -1 -24 -10 -31 -18 -15 -21
-100 -3 -118 22 -22 48 -14 48 16 0 15 3 50 6 78 8 66 -19 120 -41 84z"/>
<path d="M1116 2974 c-53 -14 -68 -24 -48 -31 6 -3 12 -11 12 -19 0 -8 5 -14
12 -14 9 0 9 -3 0 -12 -26 -26 -13 -38 43 -38 52 0 55 1 55 25 0 21 24 45 44
45 15 0 3 -18 -15 -23 -13 -4 -20 -12 -17 -24 2 -14 14 -19 53 -21 27 -2 52
-8 56 -13 3 -6 9 11 13 37 3 26 2 52 -3 57 -5 5 -34 9 -65 10 -44 1 -60 5 -67
19 -5 10 -13 17 -17 17 -4 -1 -29 -7 -56 -15z"/>
<path d="M3186 2972 c-7 -11 6 -27 27 -35 16 -6 16 -5 1 18 -18 27 -20 29 -28
17z"/>
<path d="M3240 2970 c0 -5 5 -10 10 -10 6 0 10 5 10 10 0 6 -4 10 -10 10 -5 0
-10 -4 -10 -10z"/>
<path d="M2930 2955 c0 -8 -18 -29 -40 -46 -23 -18 -40 -41 -40 -52 0 -19 1
-19 26 4 14 13 33 36 42 52 9 15 22 27 29 27 7 0 10 7 7 15 -8 19 -24 20 -24
0z"/>
<path d="M3305 2953 c4 -10 10 -28 12 -40 3 -13 10 -23 15 -23 9 0 2 54 -9 73
-9 15 -25 6 -18 -10z"/>
<path d="M2190 2807 c0 -13 9 -17 45 -17 41 0 54 7 39 22 -3 4 -18 3 -34 -2
-18 -5 -32 -4 -39 3 -8 8 -11 6 -11 -6z"/>
<path d="M1120 2800 c0 -5 5 -10 11 -10 5 0 7 5 4 10 -3 6 -8 10 -11 10 -2 0
-4 -4 -4 -10z"/>
<path d="M1225 2800 c3 -5 8 -10 11 -10 2 0 4 5 4 10 0 6 -5 10 -11 10 -5 0
-7 -4 -4 -10z"/>
<path d="M2305 2800 c-4 -6 11 -10 41 -10 54 0 55 7 2 15 -21 4 -39 1 -43 -5z"/>
<path d="M2078 2793 c7 -3 16 -2 19 1 4 3 -2 6 -13 5 -11 0 -14 -3 -6 -6z"/>
<path d="M1470 2750 c0 -5 14 -10 31 -10 17 0 39 -5 50 -10 16 -9 19 -7 19 10
0 17 -6 20 -50 20 -27 0 -50 -4 -50 -10z"/>
<path d="M1928 2734 c24 -17 39 -14 27 5 -3 6 -16 11 -28 11 l-21 0 22 -16z"/>
<path d="M4715 3010 c3 -5 8 -10 11 -10 2 0 4 5 4 10 0 6 -5 10 -11 10 -5 0
-7 -4 -4 -10z"/>
<path d="M4690 2910 c0 -5 5 -10 11 -10 5 0 7 5 4 10 -3 6 -8 10 -11 10 -2 0
-4 -4 -4 -10z"/>
<path d="M4899 2913 c-10 -2 -19 -13 -22 -24 -7 -26 4 -23 26 6 10 14 17 24
15 24 -2 -1 -10 -3 -19 -6z"/>
<path d="M3270 2669 c0 -5 5 -7 10 -4 6 3 10 8 10 11 0 2 -4 4 -10 4 -5 0 -10
-5 -10 -11z"/>
<path d="M3465 2220 c-3 -5 -2 -10 4 -10 5 0 13 5 16 10 3 6 2 10 -4 10 -5 0
-13 -4 -16 -10z"/>
<path d="M3409 2129 c-5 -11 -5 -20 0 -23 13 -9 61 11 61 25 0 8 -5 7 -17 -2
-14 -12 -16 -12 -11 2 8 22 -21 20 -33 -2z"/>
<path d="M3370 2129 c0 -5 5 -7 10 -4 6 3 10 8 10 11 0 2 -4 4 -10 4 -5 0 -10
-5 -10 -11z"/>
<path d="M3455 2050 c4 -6 11 -8 16 -5 14 9 11 15 -7 15 -8 0 -12 -5 -9 -10z"/>
<path d="M3610 1530 c0 -5 -7 -10 -15 -10 -8 0 -15 -4 -15 -8 0 -5 6 -9 13 -9
7 0 25 -3 40 -7 31 -7 35 4 9 27 -21 19 -32 22 -32 7z"/>
<path d="M3495 1490 c3 -5 11 -10 16 -10 6 0 7 5 4 10 -3 6 -11 10 -16 10 -6
0 -7 -4 -4 -10z"/>
<path d="M3683 1397 c-1 -25 3 -33 18 -34 15 -1 19 5 19 33 0 26 -4 34 -18 34
-14 0 -18 -8 -19 -33z"/>
<path d="M3340 1370 c-18 -12 -2 -12 25 0 13 6 15 9 5 9 -8 0 -22 -4 -30 -9z"/>
<path d="M3055 1287 c-4 -18 -5 -49 -3 -68 l3 -34 17 31 c14 25 15 39 7 68 -5
20 -12 36 -14 36 -2 0 -7 -15 -10 -33z"/>
<path d="M3286 1004 c-4 -20 -5 -38 -3 -40 3 -3 8 11 11 32 4 20 5 38 3 40 -3
3 -8 -11 -11 -32z"/>
<path d="M3173 1002 c10 -11 17 -35 17 -60 0 -22 5 -44 10 -47 6 -4 10 13 10
43 0 35 -5 54 -18 65 -25 23 -39 22 -19 -1z"/>
<path d="M2857 1993 c-11 -10 -8 -43 3 -43 6 0 10 11 10 25 0 26 -2 29 -13 18z"/>
<path d="M4660 1676 c0 -9 7 -16 16 -16 17 0 14 22 -4 28 -7 2 -12 -3 -12 -12z"/>
<path d="M4375 1620 c-3 -5 -1 -10 4 -10 6 0 11 5 11 10 0 6 -2 10 -4 10 -3 0
-8 -4 -11 -10z"/>
<path d="M4493 1620 c-13 -5 -23 -14 -23 -19 0 -7 9 -6 26 1 20 9 30 9 46 -1
26 -16 39 -3 14 15 -22 16 -32 16 -63 4z"/>
<path d="M4815 1620 c-3 -5 -2 -10 4 -10 5 0 13 5 16 10 3 6 2 10 -4 10 -5 0
-13 -4 -16 -10z"/>
<path d="M4380 1582 c0 -5 7 -16 16 -23 14 -12 16 -11 13 5 -4 20 -29 35 -29
18z"/>
<path d="M4548 1566 c-20 -6 -40 -14 -44 -18 -10 -11 28 -10 45 1 10 7 19 4
27 -7 16 -21 38 -4 28 21 -7 19 -6 19 -56 3z"/>
<path d="M4490 1470 c0 -5 11 -10 25 -10 16 0 25 -6 25 -15 0 -9 9 -15 24 -15
41 0 38 17 -4 34 -46 18 -70 20 -70 6z"/>
<path d="M4380 1450 c0 -5 5 -10 10 -10 6 0 10 5 10 10 0 6 -4 10 -10 10 -5 0
-10 -4 -10 -10z"/>
<path d="M4610 1450 c0 -5 5 -10 10 -10 6 0 10 5 10 10 0 6 -4 10 -10 10 -5 0
-10 -4 -10 -10z"/>
<path d="M4540 1396 c0 -2 7 -9 15 -16 12 -10 15 -10 15 4 0 9 -7 16 -15 16
-8 0 -15 -2 -15 -4z"/>
<path d="M4590 1385 c0 -13 4 -14 20 -5 11 6 20 13 20 15 0 3 -9 5 -20 5 -11
0 -20 -7 -20 -15z"/>
<path d="M4512 1348 c2 -13 11 -24 23 -27 11 -2 23 -8 27 -15 4 -6 8 1 8 16 0
17 -7 31 -19 38 -30 16 -43 12 -39 -12z"/>
<path d="M4612 1350 c-14 -11 -18 -21 -12 -25 17 -10 37 1 43 24 6 26 -1 26
-31 1z"/>
<path d="M160 1821 c0 -5 19 -15 43 -21 23 -6 50 -15 59 -20 25 -14 28 -13 28
9 0 14 -10 20 -42 25 -24 4 -53 9 -65 13 -13 3 -23 1 -23 -6z"/>
<path d="M85 1700 c11 -5 27 -9 35 -9 9 0 8 4 -5 9 -11 5 -27 9 -35 9 -9 0 -8
-4 5 -9z"/>
<path d="M3806 1551 c-4 -7 -5 -15 -2 -18 9 -9 19 4 14 18 -4 11 -6 11 -12 0z"/>
<path d="M1598 1413 c7 -3 16 -2 19 1 4 3 -2 6 -13 5 -11 0 -14 -3 -6 -6z"/>
<path d="M728 1073 c6 -2 18 -2 25 0 6 3 1 5 -13 5 -14 0 -19 -2 -12 -5z"/>
<path d="M2162 1256 c7 -8 15 -12 17 -11 5 6 -10 25 -20 25 -5 0 -4 -6 3 -14z"/>
<path d="M2195 1210 c10 -11 20 -20 23 -20 3 0 -3 9 -13 20 -10 11 -20 20 -23
20 -3 0 3 -9 13 -20z"/>
<path d="M2280 1095 c0 -5 5 -17 10 -25 5 -8 10 -10 10 -5 0 6 -5 17 -10 25
-5 8 -10 11 -10 5z"/>
<path d="M4410 4030 c0 -5 11 -10 25 -10 14 0 25 5 25 10 0 6 -11 10 -25 10
-14 0 -25 -4 -25 -10z"/>
<path d="M1050 3910 c-11 -7 -6 -10 20 -10 19 0 42 5 50 10 11 7 6 10 -20 10
-19 0 -42 -5 -50 -10z"/>
<path d="M1255 3900 c44 -11 67 -11 60 0 -3 6 -25 9 -48 9 -40 -1 -40 -2 -12
-9z"/>
<path d="M985 75 c-16 -8 -43 -14 -60 -15 -31 0 -99 -21 -111 -33 -4 -4 -24
-7 -45 -7 -21 0 -40 -4 -44 -9 -3 -6 43 -10 114 -10 69 -1 123 3 126 9 3 6 14
10 23 10 9 0 37 10 62 21 32 14 41 22 31 28 -11 7 -11 9 0 14 8 3 -4 5 -26 5
-22 0 -53 -6 -70 -13z"/>
</g>
</svg>
