<?xml version="1.0" standalone="no"?>
<!DOCTYPE svg PUBLIC "-//W3C//DTD SVG 20010904//EN"
 "http://www.w3.org/TR/2001/REC-SVG-20010904/DTD/svg10.dtd">
<svg version="1.0" xmlns="http://www.w3.org/2000/svg"
 width="580.000000pt" height="320.000000pt" viewBox="0 0 580.000000 320.000000"
 preserveAspectRatio="xMidYMid meet">

<g transform="translate(0.000000,320.000000) scale(0.100000,-0.100000)"
fill="#000000" stroke="none">
<path d="M0 2785 c0 -408 0 -415 20 -415 19 0 20 -7 20 -129 0 -118 -2 -129
-19 -134 -17 -4 -19 -15 -20 -106 -1 -90 0 -101 16 -101 16 0 18 -11 15 -131
-2 -102 -6 -131 -18 -136 -18 -7 -19 -79 -1 -86 8 -4 9 -8 2 -14 -7 -5 -11
-100 -12 -250 -1 -205 1 -243 13 -243 8 0 14 -4 14 -10 0 -5 -7 -10 -15 -10
-13 0 -15 -63 -15 -510 l0 -510 2900 0 2900 0 0 303 0 304 -182 7 c-100 4
-183 8 -184 9 -1 1 -5 104 -9 228 l-8 226 108 6 c60 4 146 7 192 7 l83 0 0
181 0 182 -87 -6 c-49 -4 -138 -9 -199 -13 l-111 -7 -6 74 c-4 41 -9 142 -13
226 l-7 152 24 5 c13 3 94 12 179 21 85 8 170 18 188 21 l32 5 0 189 c0 146
-3 190 -12 190 -7 0 -103 -13 -213 -29 -110 -16 -201 -27 -202 -26 -7 5 -18
431 -12 439 7 8 49 17 317 66 l122 22 0 189 c0 113 -4 189 -10 189 -10 0 -386
-78 -412 -86 -16 -5 -18 2 -18 60 l0 66 -285 0 -285 0 0 -110 c0 -66 -4 -110
-10 -110 -20 0 -252 -94 -241 -98 21 -7 11 -22 -16 -22 -14 0 -85 -11 -157
-25 -238 -45 -1114 -202 -1541 -276 -231 -39 -424 -75 -428 -79 -4 -4 -5 -14
-1 -24 6 -15 7 -15 20 1 13 17 13 17 14 -3 0 -25 -9 -30 -74 -39 -42 -7 -46
-5 -46 13 0 15 9 21 35 26 19 4 35 12 35 18 0 6 -11 8 -29 5 -15 -3 -51 -9
-80 -13 l-51 -7 0 96 c0 53 3 98 8 100 4 3 153 33 332 67 343 65 1873 367
1903 376 13 4 17 16 17 55 l0 49 -2240 0 -2240 0 0 -415z m5746 184 c3 -6 0
-17 -7 -25 -18 -17 -44 -2 -36 20 7 18 33 21 43 5z m-88 -28 c-2 -9 -13 -17
-26 -19 -16 -3 -22 2 -22 16 0 11 6 22 13 25 20 7 38 -4 35 -22z m-90 -13 c-7
-19 -38 -22 -38 -4 0 10 9 16 21 16 12 0 19 -5 17 -12z m-170 -30 c-5 -15 -48
-24 -48 -10 0 14 12 22 33 22 10 0 17 -5 15 -12z m-758 -8 c0 -5 -9 -10 -21
-10 -11 0 -17 5 -14 10 3 6 13 10 21 10 8 0 14 -4 14 -10z m673 4 c11 -11 -5
-34 -24 -34 -12 0 -19 7 -19 20 0 19 28 28 43 14z m-403 -24 c0 -5 -4 -10 -9
-10 -6 0 -13 5 -16 10 -3 6 1 10 9 10 9 0 16 -4 16 -10z m-59 -15 c0 -5 -9
-11 -21 -13 -20 -3 -27 8 -13 22 10 9 34 3 34 -9z m-56 -25 c-3 -5 -13 -6 -21
-3 -12 4 -13 8 -3 14 15 9 32 2 24 -11z m-372 -50 c-3 -11 -9 -20 -14 -20 -10
0 -12 33 -3 43 12 12 22 -3 17 -23z m97 21 c0 -9 -34 -21 -62 -21 -10 0 -18 5
-18 11 0 5 4 8 8 5 4 -2 14 -1 22 5 19 11 50 12 50 0z m110 -21 c0 -5 -7 -10
-15 -10 -8 0 -15 5 -15 10 0 6 7 10 15 10 8 0 15 -4 15 -10z m-290 -10 c0 -5
-17 -12 -37 -15 -21 -3 -48 -8 -60 -11 -42 -8 -24 13 20 23 56 14 77 15 77 3z
m240 -11 c0 -5 -7 -9 -15 -9 -15 0 -20 12 -9 23 8 8 24 -1 24 -14z m-375 1 c7
-12 -12 -40 -26 -40 -10 0 -12 34 -2 43 9 10 21 9 28 -3z m-95 -29 c0 -14
-101 -34 -113 -22 -6 6 4 12 29 16 22 4 44 8 49 10 20 7 35 5 35 -4z m-140
-35 c-14 -18 -30 -12 -30 9 0 9 6 12 17 8 12 -5 14 -3 8 8 -6 11 -5 12 5 2 11
-10 11 -15 0 -27z m445 14 c3 -5 1 -10 -4 -10 -6 0 -11 5 -11 10 0 6 2 10 4
10 3 0 8 -4 11 -10z m-531 -20 c-5 -5 -40 -16 -77 -23 -52 -11 -67 -12 -67 -2
0 7 22 16 53 21 81 14 102 15 91 4z m616 -20 c0 -15 -7 -20 -25 -20 -24 0 -34
18 -18 33 15 15 43 7 43 -13z m-772 -7 c-5 -26 -38 -29 -38 -4 0 15 6 21 21
21 14 0 19 -5 17 -17z m602 -26 c0 -9 -13 -14 -35 -15 -20 -1 -40 -4 -45 -7
-6 -4 -10 1 -10 9 0 13 19 20 73 25 9 0 17 -5 17 -12z m473 -139 c4 -83 7
-181 7 -219 l0 -67 -72 -16 c-39 -9 -109 -24 -155 -33 -88 -19 -114 -39 -38
-31 44 5 45 5 45 -22 0 -25 -4 -28 -80 -45 -73 -17 -80 -20 -80 -43 0 -24 1
-24 53 -17 28 5 66 9 82 9 l30 1 0 -95 0 -96 103 19 c57 11 106 17 109 13 9
-9 23 -420 15 -427 -4 -3 -61 -12 -127 -18 -66 -6 -132 -14 -147 -17 l-28 -6
0 68 c0 56 -3 70 -22 85 -11 11 -30 19 -42 20 -94 5 -114 8 -139 18 -41 16
-26 28 40 30 32 2 69 4 83 6 14 2 39 4 55 4 19 1 25 4 18 9 -7 5 -28 7 -45 5
-18 -2 -67 -5 -108 -8 -41 -3 -85 -7 -97 -10 -26 -6 -37 8 -29 40 5 21 11 23
63 23 32 0 75 2 96 5 30 4 37 2 37 -11 1 -15 2 -15 11 1 10 18 11 18 25 0 12
-17 13 -17 14 -1 0 11 5 15 15 12 11 -5 15 1 15 25 0 38 20 37 -315 8 l-250
-23 2 -109 c2 -61 5 -186 9 -278 l6 -168 87 7 c47 3 89 8 94 11 17 10 -7 23
-43 23 -37 0 -40 2 -50 37 -12 43 -30 76 -30 55 0 -9 -7 -11 -20 -7 -15 5 -20
2 -22 -12 -2 -31 -15 118 -17 194 -1 68 0 71 20 66 16 -4 20 -2 17 8 -3 8 -13
13 -22 13 -10 -1 -16 6 -16 21 0 21 6 23 89 31 97 10 114 9 105 -9 -3 -7 1 -4
9 6 16 19 47 23 47 5 0 -9 3 -9 12 0 20 20 45 14 50 -13 4 -18 1 -25 -11 -26
-13 -1 -13 -2 2 -6 10 -3 17 -14 17 -28 0 -21 17 -35 41 -35 5 0 14 11 19 25
12 32 40 33 40 2 0 -29 7 -37 26 -30 9 3 12 13 7 31 -5 21 -3 24 11 19 10 -4
24 -7 32 -7 7 0 13 -8 12 -17 -4 -47 3 -93 13 -90 6 1 14 -4 16 -10 3 -9 -7
-12 -36 -11 -27 1 -41 6 -41 15 0 24 -18 14 -28 -16 l-10 -29 66 3 c37 2 57 1
45 -2 -13 -2 -23 -11 -23 -19 0 -8 -4 -14 -10 -14 -5 0 -10 8 -10 17 0 38 -53
-53 -64 -108 l-6 -36 -68 -7 c-37 -3 -86 -6 -109 -6 -24 0 -43 -4 -43 -8 0 -8
205 -6 243 3 13 2 17 -1 13 -11 -4 -10 3 -14 23 -14 20 0 30 6 34 20 3 11 12
20 21 20 19 0 21 -11 4 -28 -9 -9 -4 -12 25 -12 37 0 37 0 37 -40 0 -24 -5
-42 -12 -45 -7 -2 -209 -9 -448 -14 -239 -6 -473 -14 -519 -17 l-83 -5 8 58
c5 32 8 86 7 119 l-3 62 34 -5 c26 -3 34 0 38 15 4 15 12 17 41 14 31 -4 35
-2 31 15 -5 18 0 20 45 20 32 1 55 -4 62 -13 14 -17 49 -18 49 -1 0 15 -47 67
-61 67 -5 0 -9 -8 -7 -17 2 -15 -5 -19 -39 -21 -35 -3 -43 0 -43 14 0 14 -8
15 -50 11 -27 -3 -54 -8 -60 -12 -6 -3 -7 0 -4 9 4 11 20 16 53 16 25 0 76 3
113 6 53 5 65 10 61 22 -5 12 -25 13 -132 7 -69 -4 -123 -4 -119 0 6 6 211 25
272 25 l28 0 -25 42 c-24 40 -28 43 -69 42 -50 0 -241 -12 -345 -20 l-73 -6 0
41 c0 39 2 41 30 41 17 0 30 4 30 9 0 4 -11 6 -24 4 -25 -5 -42 10 -31 27 5 8
11 7 21 -1 11 -9 14 -9 14 0 0 7 4 10 9 7 5 -4 12 0 15 6 5 10 7 10 12 1 9
-19 35 -16 27 3 -5 13 -15 15 -54 10 -27 -4 -50 -2 -54 3 -7 12 -35 3 -35 -10
0 -5 10 -9 21 -9 16 0 19 -3 11 -12 -5 -7 -13 -48 -17 -91 -5 -63 -4 -82 9
-102 15 -22 14 -25 -2 -34 -16 -10 -16 -10 2 -11 11 0 16 -5 13 -14 -3 -7 0
-19 6 -25 8 -8 5 -11 -10 -11 -12 0 -24 -4 -27 -9 -3 -4 5 -6 18 -4 16 3 32
-3 46 -17 19 -19 24 -20 38 -7 37 31 45 29 17 -4 -16 -20 -34 -34 -40 -32 -12
4 -47 -49 -65 -99 -13 -35 -30 -51 -30 -28 0 5 -7 7 -15 4 -10 -4 -15 0 -15
10 0 13 -4 15 -17 7 -13 -7 -21 -5 -30 7 -11 16 -12 16 -13 0 0 -30 41 -98 69
-113 14 -8 24 -15 21 -15 -11 -3 -48 -7 -95 -11 -47 -4 -50 -3 -53 21 -1 14
-7 54 -13 90 l-10 65 -62 -3 c-34 -1 -72 -5 -84 -7 -32 -7 -29 -29 3 -22 14 2
22 1 17 -3 -4 -5 -19 -10 -33 -13 -18 -3 -15 -5 13 -6 28 -1 37 3 37 16 0 9 3
13 7 9 10 -10 3 -89 -9 -103 -12 -15 -48 -17 -48 -3 0 6 -5 10 -11 10 -5 0 -7
-4 -4 -10 3 -5 0 -10 -7 -10 -18 -1 -58 -35 -58 -50 0 -9 -7 -10 -22 -4 -13 5
-151 9 -308 9 l-285 0 0 382 c0 210 3 384 6 388 4 3 19 8 35 11 16 3 29 6 31
7 1 1 3 76 4 165 2 90 6 165 10 168 8 4 187 35 224 37 18 2 19 -6 23 -163 3
-140 6 -167 20 -178 16 -12 17 -1 20 141 2 141 4 156 23 173 15 14 24 16 37 8
23 -15 27 -52 9 -72 -14 -15 -13 -17 9 -18 21 -2 24 2 24 31 0 24 5 35 18 38
12 3 11 5 -6 6 -38 2 -24 35 16 39 33 3 33 3 26 -32 -6 -34 -5 -36 20 -36 16
0 26 -5 26 -15 0 -19 3 -19 95 2 73 16 75 17 76 47 1 31 -1 69 -5 73 -5 5
-305 -37 -331 -47 -28 -11 -29 -10 -13 6 14 14 135 35 600 101 321 46 590 80
598 77 8 -4 -41 -15 -110 -24 -108 -15 -205 -32 -260 -45 -8 -2 -20 -4 -26 -4
-7 -1 -15 -9 -19 -18 -5 -15 -4 -16 6 -5 23 22 58 15 65 -13 3 -14 4 -31 1
-39 -6 -15 11 -36 28 -36 5 0 4 4 -3 8 -10 7 -10 15 -2 37 8 21 8 30 -1 36
-25 15 0 36 53 44 78 11 79 11 131 20 43 7 47 6 47 -13 0 -22 -18 -32 -61 -32
-22 0 -29 -5 -29 -19 0 -17 6 -19 40 -16 34 3 40 1 40 -16 0 -21 6 -22 74 -13
l48 7 -4 58 c-2 31 0 55 3 53 4 -2 10 -87 14 -189 l7 -186 24 24 c23 23 24 29
26 212 l3 189 225 33 c124 18 251 37 282 41 l57 9 4 -51 c2 -28 4 -3 3 56 -1
58 1 105 5 103 3 -2 68 16 145 40 76 24 142 43 145 44 3 1 9 -67 12 -151z
m-344 101 c-5 -10 -14 -19 -20 -19 -16 0 -22 29 -9 45 19 22 43 0 29 -26z
m-233 22 c-7 -11 -135 -36 -143 -27 -11 10 6 19 50 27 63 10 99 10 93 0z
m-159 -26 c-7 -16 -67 -22 -67 -5 0 9 61 30 69 24 2 -2 1 -10 -2 -19z m-37
-35 c0 -5 6 -8 13 -6 34 11 77 14 77 7 0 -10 -110 -32 -122 -25 -4 3 -5 11 -1
19 6 17 33 21 33 5z m127 4 c-3 -3 -12 -4 -19 -1 -8 3 -5 6 6 6 11 1 17 -2 13
-5z m193 -3 c0 -5 -19 -12 -42 -16 -136 -20 -184 -29 -193 -37 -6 -6 -1 -7 15
-4 80 17 171 28 177 23 10 -11 1 -14 -57 -20 -30 -4 -73 -11 -95 -16 -68 -17
-155 -23 -155 -12 0 6 17 11 38 11 20 0 44 5 52 11 11 8 1 9 -37 4 -29 -3 -53
-2 -53 3 0 5 71 20 158 34 184 30 192 31 192 19z m-562 -23 c7 -7 12 -27 12
-45 0 -54 -47 -72 -231 -89 -61 -6 -68 -5 -78 14 -13 24 -6 66 14 82 13 11
196 47 246 49 14 1 30 -4 37 -11z m-1218 -68 c0 -14 -32 -28 -79 -36 -33 -5
-41 -4 -41 9 0 10 16 18 48 25 64 13 72 14 72 2z m570 -45 c0 -18 -7 -26 -24
-31 -14 -3 -27 -12 -30 -19 -4 -11 0 -12 21 -4 15 5 32 8 40 5 7 -3 13 -1 13
5 0 5 10 7 23 4 12 -3 39 1 59 10 43 17 72 20 63 5 -3 -5 -1 -10 4 -10 6 0 11
5 11 10 0 6 11 10 25 10 15 0 25 -6 25 -15 0 -9 -9 -15 -22 -15 -25 0 -55 -4
-78 -13 -8 -2 -64 -12 -125 -21 -60 -9 -120 -19 -132 -22 -19 -5 -23 -2 -23
15 0 18 6 21 40 21 23 0 40 5 40 11 0 8 -17 10 -55 6 l-55 -6 0 30 c0 28 1 29
38 24 21 -4 56 0 82 9 61 19 60 19 60 -9z m-2590 -141 l0 -136 -142 4 -143 3
-3 80 c-2 44 0 104 3 133 l6 52 140 0 139 0 0 -136z m2388 85 c-7 -5 -24 -8
-38 -8 -14 1 -47 -3 -73 -9 l-48 -10 3 27 c2 22 8 26 33 26 17 0 33 -7 37 -15
5 -11 7 -8 7 8 1 20 5 23 29 18 15 -3 34 -2 42 4 11 7 16 5 18 -12 2 -11 -2
-25 -10 -29z m-224 15 c24 -24 21 -93 -6 -121 -41 -44 -88 -17 -88 52 0 68 55
109 94 69z m266 -44 c0 -15 -5 -19 -22 -16 -13 2 -27 0 -33 -4 -19 -14 -55
-18 -55 -7 0 9 -2 9 -8 1 -4 -7 -23 -14 -42 -15 -26 -3 -35 0 -35 11 0 11 19
17 75 23 41 5 79 12 85 18 16 16 35 10 35 -11z m2780 -151 c0 -15 -30 -23 -42
-11 -6 6 -8 18 -4 27 4 13 10 14 26 5 11 -6 20 -15 20 -21z m-92 -8 c-2 -9
-13 -17 -26 -19 -16 -3 -22 2 -22 16 0 11 6 22 13 25 20 7 38 -4 35 -22z m-98
-11 c0 -5 -4 -10 -10 -10 -5 0 -10 5 -10 10 0 6 5 10 10 10 6 0 10 -4 10 -10z
m-560 -21 c0 -5 -9 -9 -20 -9 -11 0 -20 4 -20 8 0 4 9 8 20 9 11 1 20 -2 20
-8z m305 -9 c0 -8 -10 -16 -22 -18 -18 -3 -23 2 -23 18 0 16 5 21 23 18 12 -2
22 -10 22 -18z m85 9 c0 -5 -9 -9 -20 -9 -11 0 -20 4 -20 8 0 4 9 8 20 9 11 1
20 -2 20 -8z m-456 -8 c3 -5 0 -13 -7 -19 -15 -13 -42 1 -33 17 9 13 33 15 40
2z m-64 -21 c0 -5 -7 -10 -15 -10 -8 0 -15 5 -15 10 0 6 7 10 15 10 8 0 15 -4
15 -10z m-4732 -38 c2 -7 -6 -12 -17 -12 -21 0 -27 11 -14 24 9 9 26 2 31 -12z
m207 9 c7 -12 -12 -24 -25 -16 -11 7 -4 25 10 25 5 0 11 -4 15 -9z m53 -9 c2
-7 -3 -12 -12 -12 -9 0 -16 7 -16 16 0 17 22 14 28 -4z m152 2 c0 -8 -4 -12
-10 -9 -5 3 -10 10 -10 16 0 5 5 9 10 9 6 0 10 -7 10 -16z m-470 -4 c0 -5 -4
-10 -10 -10 -5 0 -10 5 -10 10 0 6 5 10 10 10 6 0 10 -4 10 -10z m110 0 c0 -5
-4 -10 -9 -10 -6 0 -13 5 -16 10 -3 6 1 10 9 10 9 0 16 -4 16 -10z m4498 -2
c-3 -7 -11 -13 -18 -13 -7 0 -15 6 -17 13 -3 7 4 12 17 12 13 0 20 -5 18 -12z
m-58 -13 c0 -8 -6 -15 -14 -15 -17 0 -28 14 -19 24 12 12 33 6 33 -9z m-170
-35 c0 -5 -7 -10 -16 -10 -8 0 -12 5 -9 10 3 6 10 10 16 10 5 0 9 -4 9 -10z
m-3920 -210 l0 -140 -97 -1 c-54 -1 -123 -2 -153 -3 l-55 -1 -3 137 c-2 124
-1 137 15 141 10 3 80 5 156 6 l137 1 0 -140z m3556 -165 c-3 -8 -1 -15 3 -15
5 0 11 5 13 12 2 6 26 13 54 15 35 3 45 1 34 -7 -8 -5 -10 -10 -5 -10 6 0 11
-9 12 -19 1 -17 -9 -20 -109 -26 -83 -6 -112 -4 -118 5 -6 9 -11 7 -19 -6 -9
-17 -10 -15 -11 14 0 22 5 32 15 32 8 0 15 -6 15 -12 0 -9 4 -8 10 2 8 13 11
13 19 1 7 -11 10 -10 13 5 4 17 6 16 16 -6 8 -18 11 -20 11 -7 1 10 11 22 24
27 30 12 30 12 23 -5z m-3556 -66 c0 -5 -7 -9 -15 -9 -15 0 -20 12 -9 23 8 8
24 -1 24 -14z m-220 -23 c-13 -13 -35 7 -25 24 5 8 11 8 21 -1 10 -8 12 -15 4
-23z m58 16 c2 -7 -6 -12 -17 -12 -21 0 -27 11 -14 24 9 9 26 2 31 -12z m-268
-17 c0 -8 -9 -15 -20 -15 -11 0 -20 7 -20 15 0 8 9 15 20 15 11 0 20 -7 20
-15z m50 5 c0 -5 -7 -10 -15 -10 -8 0 -15 5 -15 10 0 6 7 10 15 10 8 0 15 -4
15 -10z m-110 -10 c0 -5 -4 -10 -9 -10 -6 0 -13 5 -16 10 -3 6 1 10 9 10 9 0
16 -4 16 -10z m4260 -41 c0 -24 -23 -21 -28 4 -2 10 3 17 12 17 10 0 16 -9 16
-21z m-670 -14 c0 -11 -12 -15 -50 -15 -37 0 -48 -3 -44 -14 8 -20 -97 -31
-112 -11 -16 22 -103 20 -111 -2 -6 -15 -7 -14 -13 3 -4 10 -6 22 -3 27 2 4
41 7 86 8 45 1 109 5 142 9 97 12 105 11 105 -5z m-40 -45 c0 -5 -5 -10 -11
-10 -5 0 -7 5 -4 10 3 6 8 10 11 10 2 0 4 -4 4 -10z m-3065 -150 l0 -135 -152
-3 -153 -3 0 135 0 135 73 3 c39 2 108 3 152 3 l80 0 0 -135z m2962 114 c-3
-3 -12 -4 -19 -1 -8 3 -5 6 6 6 11 1 17 -2 13 -5z m-7 -34 c0 -5 -7 -10 -16
-10 -8 0 -12 5 -9 10 3 6 10 10 16 10 5 0 9 -4 9 -10z m1070 -30 c0 -5 -6 -10
-14 -10 -8 0 -18 5 -21 10 -3 6 3 10 14 10 12 0 21 -4 21 -10z m-1080 -46 c0
-24 -19 -25 -31 -2 -9 16 -9 23 0 26 6 2 9 9 5 15 -3 7 2 3 10 -7 9 -11 16
-25 16 -32z m1040 25 c0 -6 7 -9 15 -5 9 3 15 0 15 -9 0 -10 -10 -15 -29 -15
-24 0 -28 3 -24 20 6 21 23 28 23 9z m1229 -45 c-6 -8 -17 -14 -25 -14 -20 0
-27 19 -14 35 9 11 17 12 32 4 15 -8 17 -13 7 -25z m-803 15 c9 -16 -12 -33
-31 -25 -14 5 -15 9 -5 21 15 18 26 19 36 4z m708 5 c23 -9 20 -31 -5 -39 -25
-8 -44 7 -36 29 7 17 16 19 41 10z m-1220 -19 c-4 -8 -11 -15 -17 -15 -18 0
34 -49 57 -53 15 -3 13 -5 -8 -6 -31 -1 -66 23 -66 45 0 11 26 44 35 44 3 0 2
-7 -1 -15z m446 -1 c0 -17 -22 -14 -28 4 -2 7 3 12 12 12 9 0 16 -7 16 -16z
m130 6 c0 -5 -7 -10 -15 -10 -8 0 -15 5 -15 10 0 6 7 10 15 10 8 0 15 -4 15
-10z m557 -7 c4 -11 -26 -27 -35 -19 -2 3 -2 12 2 21 6 18 27 16 33 -2z m-917
-8 c0 -8 -6 -15 -14 -15 -17 0 -28 14 -19 24 12 12 33 6 33 -9z m60 6 c0 -14
-18 -23 -30 -16 -6 4 -8 11 -5 16 8 12 35 12 35 0z m-230 -11 c0 -5 -8 -10
-17 -10 -15 0 -16 2 -3 10 19 12 20 12 20 0z m835 -10 c0 -19 -35 -26 -46 -9
-4 7 -5 17 -2 22 8 14 48 3 48 -13z m85 11 c0 -6 -5 -13 -10 -16 -15 -9 -43 3
-35 15 8 13 45 13 45 1z m-850 -46 c0 -9 -9 -15 -22 -15 -22 1 -23 1 -4 15 25
19 26 19 26 0z m0 -45 c0 -5 -2 -10 -4 -10 -3 0 -8 5 -11 10 -3 6 -1 10 4 10
6 0 11 -4 11 -10z m-4214 -121 c10 -17 -13 -36 -27 -22 -12 12 -4 33 11 33 5
0 12 -5 16 -11z m54 -3 c0 -8 -4 -17 -8 -20 -13 -8 -35 11 -28 23 10 16 36 14
36 -3z m44 -7 c-3 -5 -10 -7 -15 -3 -5 3 -7 10 -3 15 3 5 10 7 15 3 5 -3 7
-10 3 -15z m116 11 c0 -5 -7 -10 -15 -10 -8 0 -15 5 -15 10 0 6 7 10 15 10 8
0 15 -4 15 -10z m-496 -9 c7 -11 -3 -41 -14 -41 -11 0 -21 30 -14 41 3 5 9 9
14 9 5 0 11 -4 14 -9z m61 -10 c0 -8 -4 -16 -10 -18 -16 -5 -38 14 -30 26 9
16 40 9 40 -8z m55 4 c0 -8 -6 -15 -14 -15 -17 0 -28 14 -19 24 12 12 33 6 33
-9z m100 5 c0 -5 -4 -10 -10 -10 -5 0 -10 5 -10 10 0 6 5 10 10 10 6 0 10 -4
10 -10z m4435 -57 c-8 -78 -10 -83 -33 -83 -16 0 -112 -87 -112 -102 0 -4 20
-8 44 -8 30 0 46 -5 50 -15 3 -8 13 -15 22 -15 14 0 16 -8 10 -52 -3 -29 -6
-63 -6 -75 0 -21 -4 -23 -64 -23 -53 0 -66 3 -70 18 -2 9 -6 105 -8 212 l-3
195 75 6 c41 3 81 6 89 7 11 2 12 -11 6 -65z m-1835 7 c0 -5 -2 -10 -4 -10 -3
0 -8 5 -11 10 -3 6 -1 10 4 10 6 0 11 -4 11 -10z m19 -29 c5 -7 6 -23 4 -35
-4 -21 0 -24 44 -32 26 -4 53 -8 60 -9 27 -1 29 -9 39 -162 l6 -93 -54 0 c-74
0 -98 8 -99 34 -1 16 -3 13 -9 -9 -7 -26 -8 -23 -9 20 0 28 -8 104 -16 169 -8
66 -12 122 -10 127 7 11 35 5 44 -10z m-2359 -128 c0 -178 15 -163 -161 -163
l-149 0 0 58 c0 31 3 94 7 140 l6 82 148 0 149 0 0 -117z m2653 100 c-7 -2
-19 -2 -25 0 -7 3 -2 5 12 5 14 0 19 -2 13 -5z m1479 -98 c-3 -18 -11 -25 -28
-25 -30 0 -30 7 -1 31 30 25 35 24 29 -6z m-1732 -247 c0 -4 24 -6 53 -5 l52
2 -2 -73 c0 -41 -4 -76 -8 -80 -3 -4 -20 1 -37 11 -18 11 -34 14 -37 8 -3 -5
-7 12 -8 37 -1 26 -6 48 -12 50 -6 2 -11 12 -11 23 0 12 -5 16 -15 13 -9 -4
-15 0 -15 9 0 10 8 15 20 14 11 -1 20 -5 20 -9z m-23 -80 c-3 -7 -5 -2 -5 12
0 14 2 19 5 13 2 -7 2 -19 0 -25z m20 -35 c-3 -10 -5 -2 -5 17 0 19 2 27 5 18
2 -10 2 -26 0 -35z m80 -260 c-3 -10 -5 -2 -5 17 0 19 2 27 5 18 2 -10 2 -26
0 -35z m-418 16 c-8 -5 -24 -9 -36 -9 -12 0 -26 -6 -30 -14 -9 -15 -229 -31
-238 -17 -8 13 79 31 173 35 46 2 85 6 87 8 2 1 16 4 31 5 19 1 23 -1 13 -8z
m68 -5 c-3 -3 -12 -4 -19 -1 -8 3 -5 6 6 6 11 1 17 -2 13 -5z m-47 -24 c0 -5
-12 -10 -27 -10 -22 0 -25 2 -13 10 20 13 40 13 40 0z m310 6 c0 -3 -4 -8 -10
-11 -5 -3 -10 -1 -10 4 0 6 5 11 10 11 6 0 10 -2 10 -4z m-287 -36 c19 -5 24
-8 12 -9 -17 -1 -17 -3 -5 -11 18 -12 -152 -13 -280 -3 l-85 7 60 12 c69 12
250 15 298 4z"/>
<path d="M4683 2460 c-13 -14 -19 -16 -25 -7 -5 9 -12 9 -25 1 -21 -13 -103
-111 -103 -123 0 -5 19 -5 42 0 31 8 43 7 50 -3 6 -10 13 -6 28 14 12 14 33
29 49 33 21 4 31 15 39 40 9 33 9 35 -11 34 -12 0 -16 -3 -9 -6 19 -7 14 -31
-9 -44 -42 -22 -47 38 -6 66 12 8 16 15 9 15 -7 0 -20 -9 -29 -20z m-53 -65
c0 -18 -7 -28 -26 -36 -15 -5 -29 -7 -32 -4 -5 4 46 65 55 65 2 0 3 -11 3 -25z"/>
<path d="M3535 2250 c-3 -5 -1 -10 4 -10 6 0 11 5 11 10 0 6 -2 10 -4 10 -3 0
-8 -4 -11 -10z"/>
<path d="M3572 2230 c0 -19 2 -27 5 -17 2 9 2 25 0 35 -3 9 -5 1 -5 -18z"/>
<path d="M3337 2217 c-18 -6 -24 -13 -20 -24 5 -12 3 -14 -7 -8 -8 5 -11 3 -8
-6 4 -11 42 -16 86 -10 5 1 9 14 9 29 0 30 -14 35 -60 19z"/>
<path d="M3636 2204 c-4 -9 -4 -19 -1 -22 2 -3 7 3 11 12 4 9 4 19 1 22 -2 3
-7 -3 -11 -12z"/>
<path d="M3745 2185 c-44 -7 -98 -16 -120 -19 -112 -17 -165 -29 -173 -40 -13
-15 -11 -46 2 -47 28 -3 132 4 246 17 69 8 131 14 137 14 9 0 13 16 13 45 0
30 -4 45 -12 44 -7 -1 -49 -7 -93 -14z"/>
<path d="M3268 2183 c7 -3 16 -2 19 1 4 3 -2 6 -13 5 -11 0 -14 -3 -6 -6z"/>
<path d="M2750 2080 c0 -6 7 -10 15 -10 8 0 15 2 15 4 0 2 -7 6 -15 10 -8 3
-15 1 -15 -4z"/>
<path d="M3843 2025 c0 -38 2 -53 4 -32 2 20 2 52 0 70 -2 17 -4 1 -4 -38z"/>
<path d="M2620 2070 c0 -5 7 -10 16 -10 8 0 12 5 9 10 -3 6 -10 10 -16 10 -5
0 -9 -4 -9 -10z"/>
<path d="M2701 2049 c-41 -5 -76 -11 -79 -13 -2 -3 -2 -20 2 -39 l6 -34 108
19 c155 27 165 30 169 56 3 21 0 22 -65 21 -37 -1 -100 -5 -141 -10z"/>
<path d="M2935 2030 c3 -5 8 -10 11 -10 2 0 4 5 4 10 0 6 -5 10 -11 10 -5 0
-7 -4 -4 -10z"/>
<path d="M2775 1953 c-55 -6 -110 -12 -122 -12 -21 -1 -23 -6 -23 -53 l0 -53
85 3 c47 2 85 7 85 12 0 4 15 10 33 13 17 3 50 8 72 11 22 4 58 13 81 21 23 8
60 15 83 16 44 3 43 17 -2 21 -15 1 -27 5 -27 8 0 3 -15 12 -34 18 -38 14 -79
13 -231 -5z"/>
<path d="M3141 1934 c0 -11 3 -14 6 -6 3 7 2 16 -1 19 -3 4 -6 -2 -5 -13z"/>
<path d="M3720 1837 c-3 -3 -40 -7 -83 -10 -107 -9 -377 -37 -403 -42 -27 -6
-36 -28 -21 -49 11 -15 35 -14 292 9 154 15 285 31 293 37 7 6 12 21 10 32 -2
17 -11 22 -43 24 -23 2 -43 1 -45 -1z m50 -28 c0 -14 -27 -28 -55 -27 -17 0
-97 -7 -180 -15 -82 -8 -157 -15 -165 -15 -8 0 -41 -3 -72 -7 -53 -7 -58 -6
-58 11 0 20 7 21 154 24 22 1 44 4 49 7 5 3 48 8 95 10 47 3 93 8 103 11 23 9
129 9 129 1z"/>
<path d="M3791 1697 c-14 -37 -14 -37 7 -36 10 0 12 3 4 6 -6 2 -10 9 -7 13
10 15 34 -1 28 -18 -4 -15 -3 -15 6 -2 8 11 7 18 -3 25 -7 6 -15 17 -18 25 -4
11 -9 7 -17 -13z"/>
<path d="M4690 1688 c-14 -15 -20 -18 -18 -8 2 10 -4 14 -17 12 -20 -3 -115
-97 -115 -115 0 -5 19 -7 45 -5 25 3 45 2 45 -3 0 -17 29 -9 40 11 6 11 23 23
38 26 38 9 52 23 52 49 0 19 -4 22 -22 17 -19 -5 -20 -7 -5 -10 23 -5 22 -19
-4 -27 -45 -15 -50 42 -6 63 17 8 18 11 5 11 -10 1 -27 -9 -38 -21z m-50 -58
c0 -12 -9 -24 -22 -29 -31 -12 -33 -7 -13 23 21 31 35 33 35 6z"/>
<path d="M3760 1683 c0 -6 -17 -8 -41 -6 -29 3 -44 0 -52 -11 -8 -11 -32 -16
-72 -18 -52 -2 -61 -5 -61 -21 0 -18 6 -18 91 -12 49 4 91 9 93 10 2 2 -1 13
-8 24 -6 13 -7 21 -1 21 5 0 12 -9 16 -19 3 -12 14 -19 26 -18 19 1 19 2 -3
20 -16 13 -18 17 -6 13 18 -5 35 10 24 21 -3 4 -6 2 -6 -4z"/>
<path d="M4255 1660 c-3 -5 -1 -10 4 -10 6 0 11 5 11 10 0 6 -2 10 -4 10 -3 0
-8 -4 -11 -10z"/>
<path d="M3431 1656 c2 -2 24 -6 49 -10 31 -4 40 -3 30 4 -13 9 -89 15 -79 6z"/>
<path d="M3180 1640 c0 -5 5 -10 10 -10 6 0 10 5 10 10 0 6 -4 10 -10 10 -5 0
-10 -4 -10 -10z"/>
<path d="M3755 1612 c-79 -4 -115 -12 -115 -26 0 -23 27 -27 33 -5 4 16 14 19
56 19 28 0 51 -4 51 -10 0 -5 9 -10 20 -10 11 0 20 6 20 14 0 20 -6 21 -65 18z"/>
<path d="M3178 1605 c-2 -3 -31 -7 -64 -10 -153 -15 -239 -27 -253 -36 -11 -6
18 -9 91 -7 108 3 127 0 62 -11 -26 -4 -38 -12 -40 -24 -5 -33 -13 -47 -29
-47 -8 0 -15 -4 -15 -10 0 -5 7 -10 16 -10 8 0 12 -5 9 -10 -4 -6 -10 -8 -15
-5 -13 8 -41 -6 -33 -18 4 -6 0 -8 -11 -4 -9 4 -15 3 -12 -2 6 -9 -26 -21 -60
-21 -24 0 -34 17 -34 56 0 23 -19 35 -21 14 -2 -17 -5 -23 -27 -70 l-21 -45
26 -3 c14 -2 52 8 84 22 31 15 78 29 104 31 42 4 149 26 200 41 16 5 18 4 7
-7 -14 -15 -95 -35 -182 -45 -55 -7 -104 -37 -77 -47 7 -3 -5 -6 -26 -6 -30
-1 -40 -6 -44 -21 -3 -13 -14 -20 -28 -20 -16 0 -22 -5 -21 -17 2 -14 14 -16
70 -14 52 2 66 0 60 -10 -5 -9 -1 -10 17 -6 13 4 27 7 32 7 4 0 7 9 7 21 0 13
5 19 13 16 7 -2 18 6 24 20 10 22 10 24 -5 19 -13 -5 -13 -3 2 9 19 14 17 15
-25 16 -93 1 -1 17 140 25 77 4 138 11 135 15 -3 5 -17 9 -32 9 -33 0 -47 9
-49 34 -2 33 28 160 40 168 8 5 8 8 1 8 -6 0 -13 -2 -16 -5z"/>
<path d="M3438 1603 c7 -3 16 -2 19 1 4 3 -2 6 -13 5 -11 0 -14 -3 -6 -6z"/>
<path d="M3478 1603 c7 -3 16 -2 19 1 4 3 -2 6 -13 5 -11 0 -14 -3 -6 -6z"/>
<path d="M2716 1469 c-32 -71 -56 -132 -53 -136 4 -3 15 14 26 38 53 124 73
165 87 180 10 11 13 23 7 33 -6 11 -24 -21 -67 -115z"/>
<path d="M3510 1594 c-8 -1 -54 -6 -102 -9 l-88 -7 0 -29 0 -29 68 6 c37 3
105 9 152 12 83 7 85 8 88 35 3 27 2 27 -50 26 -29 -1 -60 -3 -68 -5z"/>
<path d="M4053 1534 c0 -16 -6 -30 -12 -32 -17 -6 -13 -30 7 -41 18 -11 18
-11 -15 -15 -12 -1 -20 1 -17 6 8 13 -9 9 -30 -7 -18 -14 -18 -15 -2 -15 13 0
16 -5 11 -20 -3 -11 -2 -20 3 -20 5 0 13 10 16 23 6 21 7 21 20 4 11 -14 16
-15 24 -5 14 18 18 126 5 139 -7 7 -10 2 -10 -17z"/>
<path d="M4100 1540 c0 -6 7 -10 15 -10 8 0 15 2 15 4 0 2 -7 6 -15 10 -8 3
-15 1 -15 -4z"/>
<path d="M4153 1505 c0 -22 2 -30 4 -17 2 12 2 30 0 40 -3 9 -5 -1 -4 -23z"/>
<path d="M4190 1516 c0 -26 14 -35 25 -16 3 6 1 10 -5 10 -6 0 -9 4 -5 9 3 5
1 12 -5 16 -6 4 -10 -5 -10 -19z"/>
<path d="M3985 1490 c-3 -5 1 -10 10 -10 9 0 13 5 10 10 -3 6 -8 10 -10 10 -2
0 -7 -4 -10 -10z"/>
<path d="M4092 1448 c5 -15 58 -24 58 -10 0 5 -10 12 -22 16 -34 9 -40 7 -36
-6z"/>
<path d="M3192 1430 c0 -14 2 -19 5 -12 2 6 2 18 0 25 -3 6 -5 1 -5 -13z"/>
<path d="M3810 1425 c0 -8 7 -15 16 -15 14 0 14 3 4 15 -7 8 -14 15 -16 15 -2
0 -4 -7 -4 -15z"/>
<path d="M4200 1370 c-11 -7 -11 -10 -2 -10 8 0 10 -5 5 -12 -10 -16 -12 -98
-3 -98 19 0 31 31 25 61 -5 21 -3 34 5 39 7 4 9 13 6 19 -9 13 -16 14 -36 1z"/>
<path d="M3146 1345 c19 -15 19 -16 -1 -14 -60 4 -95 -2 -95 -16 0 -9 -12 -20
-26 -26 -26 -9 -92 -59 -79 -59 3 0 27 11 53 25 26 14 54 25 63 25 9 0 31 7
49 16 25 13 34 14 40 4 6 -10 9 -9 13 1 4 10 8 7 12 -8 4 -13 12 -24 19 -24
57 -7 56 -7 56 22 0 16 9 38 20 49 l20 20 -82 0 c-75 0 -80 -1 -62 -15z"/>
<path d="M3876 1315 c9 -38 12 -42 20 -21 4 11 0 24 -10 34 -16 16 -17 15 -10
-13z"/>
<path d="M3018 1323 c7 -3 16 -2 19 1 4 3 -2 6 -13 5 -11 0 -14 -3 -6 -6z"/>
<path d="M4334 1296 c-9 -24 0 -51 19 -54 21 -4 40 37 25 56 -14 16 -37 15
-44 -2z"/>
<path d="M2616 1254 c-9 -24 -7 -36 6 -32 12 4 19 48 7 48 -4 0 -10 -7 -13
-16z"/>
<path d="M2747 1131 c-35 -23 -46 -34 -24 -25 10 3 17 1 17 -5 0 -6 5 -11 10
-11 6 0 10 8 10 18 0 10 5 23 12 30 16 16 8 14 -25 -7z"/>
<path d="M2920 1110 c0 -5 4 -10 9 -10 6 0 13 5 16 10 3 6 -1 10 -9 10 -9 0
-16 -4 -16 -10z"/>
<path d="M2624 1064 c-18 -14 -18 -15 4 -4 12 6 22 13 22 15 0 8 -5 6 -26 -11z"/>
<path d="M3626 2510 c-98 -17 -125 -28 -126 -52 0 -15 25 -8 37 11 9 14 33 21
100 30 112 14 111 14 115 -4 2 -10 8 -12 17 -6 18 12 6 41 -16 40 -10 -1 -67
-9 -127 -19z"/>
<path d="M478 2333 c6 -2 18 -2 25 0 6 3 1 5 -13 5 -14 0 -19 -2 -12 -5z"/>
<path d="M332 2304 c-24 -14 -42 -28 -40 -29 2 -2 19 -6 38 -8 19 -2 43 -8 53
-12 11 -4 23 -3 30 4 6 6 25 11 43 11 32 0 64 24 49 38 -4 4 -10 1 -12 -5 -6
-16 -39 -17 -49 -2 -3 6 -1 14 5 18 7 4 -7 8 -31 9 -30 1 -56 -6 -86 -24z m56
-6 c-3 -7 -15 -14 -29 -16 -23 -2 -23 -2 -5 13 24 18 39 20 34 3z"/>
<path d="M2653 2333 c-7 -2 -13 -11 -13 -19 0 -8 6 -14 13 -14 9 0 8 -3 -2 -9
-7 -5 -10 -14 -7 -20 4 -6 13 -8 19 -4 7 4 18 8 26 8 8 0 16 6 19 14 3 9 0 11
-8 6 -10 -6 -12 -4 -7 8 4 12 1 17 -11 17 -15 0 -15 2 -2 10 13 9 13 10 0 9
-8 0 -21 -3 -27 -6z"/>
<path d="M320 1828 l-55 -32 60 -7 c44 -5 65 -3 82 8 20 13 21 17 8 30 -8 8
-15 19 -15 24 0 16 -24 9 -80 -23z m50 -8 c-7 -13 -21 -20 -38 -20 l-27 1 24
19 c32 27 55 27 41 0z"/>
<path d="M422 1351 c-7 -4 -24 -6 -37 -3 -25 4 -115 -41 -115 -58 0 -4 15 -8
33 -7 17 0 43 -3 56 -7 14 -5 27 -4 34 3 6 6 25 11 43 11 32 0 64 24 49 38 -4
4 -10 1 -12 -5 -5 -14 -35 -18 -46 -7 -3 4 -2 15 4 25 11 21 10 22 -9 10z
m-54 -33 c-3 -7 -15 -14 -29 -16 -23 -2 -23 -2 -5 13 24 18 39 20 34 3z"/>
<path d="M2860 965 c0 -8 2 -15 4 -15 2 0 6 7 10 15 3 8 1 15 -4 15 -6 0 -10
-7 -10 -15z"/>
<path d="M458 873 c6 -2 18 -2 25 0 6 3 1 5 -13 5 -14 0 -19 -2 -12 -5z"/>
<path d="M308 844 c-27 -13 -48 -29 -48 -34 0 -6 20 -10 45 -10 25 0 45 -4 45
-10 0 -15 19 -12 36 5 9 8 30 15 49 15 21 0 35 6 39 16 10 25 7 29 -8 9 -17
-23 -50 -13 -43 14 7 28 -57 25 -115 -5z m52 -8 c0 -15 -37 -32 -48 -22 -6 6
27 35 41 36 4 0 7 -6 7 -14z"/>
<path d="M4562 3141 c-63 -89 -64 -95 -8 -71 37 16 46 17 46 5 0 -21 24 -9 35
18 6 12 25 29 43 38 19 8 33 17 31 20 -1 2 3 14 10 27 7 14 8 22 1 22 -5 0
-10 -6 -10 -14 0 -13 -20 -26 -41 -26 -5 0 -9 8 -9 18 0 12 -9 18 -29 20 -24
2 -34 -6 -69 -57z m38 -25 c-6 -8 -20 -16 -30 -19 -22 -6 -20 -1 14 46 20 28
21 28 24 7 2 -11 -1 -27 -8 -34z"/>
<path d="M5688 2603 c6 -2 18 -2 25 0 6 3 1 5 -13 5 -14 0 -19 -2 -12 -5z"/>
<path d="M5639 2578 c-12 -23 -12 -23 10 -4 23 21 26 26 11 26 -5 0 -15 -10
-21 -22z"/>
<path d="M5499 2540 c-96 -77 -99 -79 -99 -91 0 -6 6 -9 14 -6 34 13 136 19
136 8 0 -21 38 -11 54 14 12 18 28 26 66 31 61 8 79 26 24 24 -70 -3 -73 -2
-76 33 -5 52 -41 48 -119 -13z m48 -47 c-8 -8 -28 -13 -46 -11 l-32 3 43 33
c42 32 43 33 46 11 2 -12 -3 -28 -11 -36z"/>
<path d="M5735 2549 c-4 -6 -5 -12 -2 -15 2 -3 7 2 10 11 7 17 1 20 -8 4z"/>
<path d="M5604 1750 c-38 -6 -174 -98 -174 -118 0 -12 12 -14 70 -8 57 5 70 3
70 -8 0 -20 41 -9 61 17 11 13 32 21 66 24 35 4 53 11 62 25 11 17 10 18 -8 9
-40 -22 -104 -10 -94 16 4 10 2 14 -5 9 -6 -4 -12 3 -14 16 -3 20 -8 22 -34
18z m-22 -66 c-5 -27 -8 -29 -60 -38 -41 -7 -38 5 8 38 46 32 58 32 52 0z"/>
<path d="M5760 1720 c-13 -8 -12 -10 3 -10 9 0 17 5 17 10 0 12 -1 12 -20 0z"/>
<path d="M5715 924 c-19 -10 -31 -11 -33 -5 -8 25 -71 10 -146 -36 -97 -59
-98 -73 -6 -73 54 0 72 -4 76 -15 8 -21 40 -19 64 5 15 15 33 20 75 20 54 0
55 1 54 28 0 15 -3 21 -6 15 -2 -7 -20 -13 -39 -13 -34 0 -35 1 -32 33 3 29 6
32 41 35 20 2 37 7 37 13 0 14 -52 10 -85 -7z m-95 -48 c0 -33 -13 -46 -46
-46 -43 0 -43 12 -1 38 39 25 47 26 47 8z"/>
<path d="M5763 883 c9 -2 23 -2 30 0 6 3 -1 5 -18 5 -16 0 -22 -2 -12 -5z"/>
</g>
</svg>
